<svg xmlns="http://www.w3.org/2000/svg" xmlns:xlink="http://www.w3.org/1999/xlink" contentStyleType="text/css" height="878px" preserveAspectRatio="none" style="width:1388px;height:878px;background:#FFFFFF;" version="1.1" viewBox="0 0 1388 878" width="1388px" zoomAndPan="magnify"><title>My Nottingham - System Architecture</title><defs/><g><text fill="#000000" font-family="Verdana" font-size="22" font-weight="bold" lengthAdjust="spacing" textLength="465.6846" x="457.1543" y="37.1182">My Nottingham - System Architecture</text><!--cluster Presentation Layer--><g id="cluster_Presentation Layer"><path d="M528.5,88.2373 L678.4961,88.2373 A3.75,3.75 0 0 1 680.9961,90.7373 L687.9961,111.252 L769.5,111.252 A2.5,2.5 0 0 1 772,113.752 L772,354.2373 A2.5,2.5 0 0 1 769.5,356.7373 L528.5,356.7373 A2.5,2.5 0 0 1 526,354.2373 L526,90.7373 A2.5,2.5 0 0 1 528.5,88.2373 " fill="#FFFFFF" style="stroke:#000000;stroke-width:1.0;"/><line style="stroke:#000000;stroke-width:1.0;" x1="526" x2="687.9961" y1="111.252" y2="111.252"/><text fill="#000000" font-family="Verdana" font-size="14" font-weight="bold" lengthAdjust="spacing" textLength="148.9961" x="530" y="104.3125">Presentation Layer</text></g><!--cluster Domain Layer--><g id="cluster_Domain Layer"><path d="M612.5,405.7373 L722.082,405.7373 A3.75,3.75 0 0 1 724.582,408.2373 L731.582,428.752 L856.5,428.752 A2.5,2.5 0 0 1 859,431.252 L859,492.2373 A2.5,2.5 0 0 1 856.5,494.7373 L612.5,494.7373 A2.5,2.5 0 0 1 610,492.2373 L610,408.2373 A2.5,2.5 0 0 1 612.5,405.7373 " fill="#FFFFFF" style="stroke:#000000;stroke-width:1.0;"/><line style="stroke:#000000;stroke-width:1.0;" x1="610" x2="731.582" y1="428.752" y2="428.752"/><text fill="#000000" font-family="Verdana" font-size="14" font-weight="bold" lengthAdjust="spacing" textLength="108.582" x="614" y="421.8125">Domain Layer</text></g><!--cluster Data Layer--><g id="cluster_Data Layer"><path d="M13.5,563.7373 L99.6279,563.7373 A3.75,3.75 0 0 1 102.1279,566.2373 L109.1279,586.752 L1151.5,586.752 A2.5,2.5 0 0 1 1154,589.252 L1154,869.2373 A2.5,2.5 0 0 1 1151.5,871.7373 L13.5,871.7373 A2.5,2.5 0 0 1 11,869.2373 L11,566.2373 A2.5,2.5 0 0 1 13.5,563.7373 " fill="#FFFFFF" style="stroke:#000000;stroke-width:1.0;"/><line style="stroke:#000000;stroke-width:1.0;" x1="11" x2="109.1279" y1="586.752" y2="586.752"/><text fill="#000000" font-family="Verdana" font-size="14" font-weight="bold" lengthAdjust="spacing" textLength="85.1279" x="15" y="579.8125">Data Layer</text></g><!--cluster Local--><g id="cluster_Local"><path d="M37.5,741.7373 L79.4063,741.7373 A3.75,3.75 0 0 1 81.9063,744.2373 L88.9063,764.752 L354.5,764.752 A2.5,2.5 0 0 1 357,767.252 L357,845.2373 A2.5,2.5 0 0 1 354.5,847.7373 L37.5,847.7373 A2.5,2.5 0 0 1 35,845.2373 L35,744.2373 A2.5,2.5 0 0 1 37.5,741.7373 " fill="#FFFFFF" style="stroke:#000000;stroke-width:1.0;"/><line style="stroke:#000000;stroke-width:1.0;" x1="35" x2="88.9063" y1="764.752" y2="764.752"/><text fill="#000000" font-family="Verdana" font-size="14" font-weight="bold" lengthAdjust="spacing" textLength="40.9063" x="39" y="757.8125">Local</text></g><!--cluster Remote--><g id="cluster_Remote"><path d="M383.5,750.2373 L444.8477,750.2373 A3.75,3.75 0 0 1 447.3477,752.7373 L454.3477,773.252 L1127.5,773.252 A2.5,2.5 0 0 1 1130,775.752 L1130,836.7373 A2.5,2.5 0 0 1 1127.5,839.2373 L383.5,839.2373 A2.5,2.5 0 0 1 381,836.7373 L381,752.7373 A2.5,2.5 0 0 1 383.5,750.2373 " fill="#FFFFFF" style="stroke:#000000;stroke-width:1.0;"/><line style="stroke:#000000;stroke-width:1.0;" x1="381" x2="454.3477" y1="773.252" y2="773.252"/><text fill="#000000" font-family="Verdana" font-size="14" font-weight="bold" lengthAdjust="spacing" textLength="60.3477" x="385" y="766.3125">Remote</text></g><!--entity fragments--><g id="elem_fragments"><rect fill="#FFFFFF" height="37.0146" rx="2.5" ry="2.5" style="stroke:#000000;stroke-width:1.0;" width="94.7783" x="660.5" y="124.2373"/><text fill="#000000" font-family="Verdana" font-size="14" lengthAdjust="spacing" textLength="74.7783" x="670.5" y="148.3125">Fragments</text></g><!--entity viewmodels--><g id="elem_viewmodels"><rect fill="#FFFFFF" height="37.0146" rx="2.5" ry="2.5" style="stroke:#000000;stroke-width:1.0;" width="101.7031" x="584" y="303.7373"/><text fill="#000000" font-family="Verdana" font-size="14" lengthAdjust="spacing" textLength="81.7031" x="594" y="327.8125">ViewModels</text></g><!--entity adapters--><g id="elem_adapters"><rect fill="#FFFFFF" height="37.0146" rx="2.5" ry="2.5" style="stroke:#000000;stroke-width:1.0;" width="82.5488" x="542.5" y="124.2373"/><text fill="#000000" font-family="Verdana" font-size="14" lengthAdjust="spacing" textLength="62.5488" x="552.5" y="148.3125">Adapters</text></g><!--entity usecases--><g id="elem_usecases"><rect fill="#FFFFFF" height="37.0146" rx="2.5" ry="2.5" style="stroke:#000000;stroke-width:1.0;" width="91.9141" x="751" y="441.7373"/><text fill="#000000" font-family="Verdana" font-size="14" lengthAdjust="spacing" textLength="71.9141" x="761" y="465.8125">Use Cases</text></g><!--entity validators--><g id="elem_validators"><rect fill="#FFFFFF" height="37.0146" rx="2.5" ry="2.5" style="stroke:#000000;stroke-width:1.0;" width="90.0752" x="626" y="441.7373"/><text fill="#000000" font-family="Verdana" font-size="14" lengthAdjust="spacing" textLength="70.0752" x="636" y="465.8125">Validators</text></g><!--entity repos--><g id="elem_repos"><rect fill="#FFFFFF" height="37.0146" rx="2.5" ry="2.5" style="stroke:#000000;stroke-width:1.0;" width="105.8936" x="582" y="599.7373"/><text fill="#000000" font-family="Verdana" font-size="14" lengthAdjust="spacing" textLength="85.8936" x="592" y="623.8125">Repositories</text></g><!--entity models--><g id="elem_models"><rect fill="#FFFFFF" height="37.0146" rx="2.5" ry="2.5" style="stroke:#000000;stroke-width:1.0;" width="68.4941" x="253" y="599.7373"/><text fill="#000000" font-family="Verdana" font-size="14" lengthAdjust="spacing" textLength="48.4941" x="263" y="623.8125">Models</text></g><!--entity room--><g id="elem_room"><rect fill="#FFFFFF" height="37.0146" rx="2.5" ry="2.5" style="stroke:#000000;stroke-width:1.0;" width="131.1523" x="51.5" y="786.2373"/><text fill="#000000" font-family="Verdana" font-size="14" lengthAdjust="spacing" textLength="111.1523" x="61.5" y="810.3125">Room Database</text></g><!--entity datastore--><g id="elem_datastore"><rect fill="#FFFFFF" height="54.0293" rx="2.5" ry="2.5" style="stroke:#000000;stroke-width:1.0;" width="123.1201" x="217.5" y="777.7373"/><text fill="#000000" font-family="Verdana" font-size="14" lengthAdjust="spacing" textLength="103.1201" x="227.5" y="801.8125">TokenManager</text><text fill="#000000" font-family="Verdana" font-size="14" lengthAdjust="spacing" textLength="83.7334" x="227.5" y="818.8271">(DataStore)</text></g><!--entity firebaseAuth--><g id="elem_firebaseAuth"><rect fill="#FFFFFF" height="37.0146" rx="2.5" ry="2.5" style="stroke:#000000;stroke-width:1.0;" width="116.6943" x="397.5" y="786.2373"/><text fill="#000000" font-family="Verdana" font-size="14" lengthAdjust="spacing" textLength="96.6943" x="407.5" y="810.3125">Firebase Auth</text></g><!--entity firebaseDB--><g id="elem_firebaseDB"><rect fill="#FFFFFF" height="37.0146" rx="2.5" ry="2.5" style="stroke:#000000;stroke-width:1.0;" width="170.835" x="549.5" y="786.2373"/><text fill="#000000" font-family="Verdana" font-size="14" lengthAdjust="spacing" textLength="150.835" x="559.5" y="810.3125">Firebase Realtime DB</text></g><!--entity fcm--><g id="elem_fcm"><rect fill="#FFFFFF" height="37.0146" rx="2.5" ry="2.5" style="stroke:#000000;stroke-width:1.0;" width="157.1699" x="755.5" y="786.2373"/><text fill="#000000" font-family="Verdana" font-size="14" lengthAdjust="spacing" textLength="137.1699" x="765.5" y="810.3125">Firebase Messaging</text></g><!--entity firebaseAI--><g id="elem_firebaseAI"><rect fill="#FFFFFF" height="37.0146" rx="2.5" ry="2.5" style="stroke:#000000;stroke-width:1.0;" width="166.3438" x="948" y="786.2373"/><text fill="#000000" font-family="Verdana" font-size="14" lengthAdjust="spacing" textLength="146.3438" x="958" y="810.3125">Firebase AI (Gemini)</text></g><g id="elem_GMN30"><path d="M791,58.7373 L791,138.7373 L755.76,142.7373 L791,146.7373 L791,226.7305 A0,0 0 0 0 791,226.7305 L966.6353,226.7305 A0,0 0 0 0 966.6353,226.7305 L966.6353,68.7373 L956.6353,58.7373 L791,58.7373 A0,0 0 0 0 791,58.7373 " fill="#FFFFFF" style="stroke:#000000;stroke-width:1.0;"/><path d="M956.6353,58.7373 L956.6353,68.7373 L966.6353,68.7373 L956.6353,58.7373 " fill="#FFFFFF" style="stroke:#000000;stroke-width:1.0;"/><text fill="#000000" font-family="Verdana" font-size="13" lengthAdjust="spacing" textLength="108.1577" x="797" y="76.8071">- LoginFragment</text><text fill="#000000" font-family="Verdana" font-size="13" lengthAdjust="spacing" textLength="111.1855" x="797" y="92.6064">- HomeFragment</text><text fill="#000000" font-family="Verdana" font-size="13" lengthAdjust="spacing" textLength="120.0342" x="797" y="108.4058">- ShuttleFragment</text><text fill="#000000" font-family="Verdana" font-size="13" lengthAdjust="spacing" textLength="116.7842" x="797" y="124.2051">- InstattFragment</text><text fill="#000000" font-family="Verdana" font-size="13" lengthAdjust="spacing" textLength="125.417" x="797" y="140.0044">- BookingFragment</text><text fill="#000000" font-family="Verdana" font-size="13" lengthAdjust="spacing" textLength="154.6353" x="797" y="155.8037">- ErrandHomeFragment</text><text fill="#000000" font-family="Verdana" font-size="13" lengthAdjust="spacing" textLength="129.0352" x="797" y="171.603">- MessageFragment</text><text fill="#000000" font-family="Verdana" font-size="13" lengthAdjust="spacing" textLength="114.918" x="797" y="187.4023">- ForumFragment</text><text fill="#000000" font-family="Verdana" font-size="13" lengthAdjust="spacing" textLength="104.5649" x="797" y="203.2017">- NottiFragment</text><text fill="#000000" font-family="Verdana" font-size="13" lengthAdjust="spacing" textLength="113.8643" x="797" y="219.001">- ProfileFragment</text></g><g id="elem_GMN33"><path d="M1170.5,557.7373 L1170.5,614.2373 L688.21,618.2373 L1170.5,622.2373 L1170.5,678.3325 A0,0 0 0 0 1170.5,678.3325 L1381.9932,678.3325 A0,0 0 0 0 1381.9932,678.3325 L1381.9932,567.7373 L1371.9932,557.7373 L1170.5,557.7373 A0,0 0 0 0 1170.5,557.7373 " fill="#FFFFFF" style="stroke:#000000;stroke-width:1.0;"/><path d="M1371.9932,557.7373 L1371.9932,567.7373 L1381.9932,567.7373 L1371.9932,557.7373 " fill="#FFFFFF" style="stroke:#000000;stroke-width:1.0;"/><text fill="#000000" font-family="Verdana" font-size="13" lengthAdjust="spacing" textLength="164.1758" x="1176.5" y="575.8071">- FirebaseUserRepository</text><text fill="#000000" font-family="Verdana" font-size="13" lengthAdjust="spacing" textLength="190.4932" x="1176.5" y="591.6064">- FirebaseMessageRepository</text><text fill="#000000" font-family="Verdana" font-size="13" lengthAdjust="spacing" textLength="176.376" x="1176.5" y="607.4058">- FirebaseForumRepository</text><text fill="#000000" font-family="Verdana" font-size="13" lengthAdjust="spacing" textLength="178.0454" x="1176.5" y="623.2051">- FirebaseErrandRepository</text><text fill="#000000" font-family="Verdana" font-size="13" lengthAdjust="spacing" textLength="186.875" x="1176.5" y="639.0044">- FirebaseBookingRepository</text><text fill="#000000" font-family="Verdana" font-size="13" lengthAdjust="spacing" textLength="179.8545" x="1176.5" y="654.8037">- FirebaseCourseRepository</text><text fill="#000000" font-family="Verdana" font-size="13" lengthAdjust="spacing" textLength="123.4873" x="1176.5" y="670.603">- InstattRepository</text></g><!--link fragments to viewmodels--><g id="link_fragments_viewmodels"><path d="M700.73,161.4073 C686.74,195.4273 658.4926,264.1285 644.5226,298.0885 " fill="none" id="fragments-to-viewmodels" style="stroke:#000000;stroke-width:1.0;"/><polygon fill="#000000" points="642.24,303.6373,649.3631,296.8358,644.1422,299.0133,641.9647,293.7923,642.24,303.6373" style="stroke:#000000;stroke-width:1.0;"/><text fill="#000000" font-family="Verdana" font-size="13" lengthAdjust="spacing" textLength="119.8311" x="661" y="270.8071">observes LiveData</text></g><!--link viewmodels to usecases--><g id="link_viewmodels_usecases"><path d="M660.09,340.7573 C680.53,355.3473 709.84,377.0073 734,397.7373 C750.35,411.7773 763.6151,424.7175 775.9851,437.3675 " fill="none" id="viewmodels-to-usecases" style="stroke:#000000;stroke-width:1.0;"/><polygon fill="#000000" points="780.18,441.6573,776.7476,432.4259,776.6843,438.0824,771.0278,438.0191,780.18,441.6573" style="stroke:#000000;stroke-width:1.0;"/><text fill="#000000" font-family="Verdana" font-size="13" lengthAdjust="spacing" textLength="28.4883" x="724" y="386.8071">calls</text></g><!--link viewmodels to repos--><g id="link_viewmodels_repos"><path d="M616.79,340.9073 C603.74,354.9273 587.24,375.7473 580,397.7373 C565.41,442.0673 569.64,457.2373 580,502.7373 C588.32,539.2873 606.6814,572.6922 620.2014,594.4322 " fill="none" id="viewmodels-to-repos" style="stroke:#000000;stroke-width:1.0;"/><polygon fill="#000000" points="623.37,599.5273,622.0138,589.7723,620.7295,595.2814,615.2204,593.9971,623.37,599.5273" style="stroke:#000000;stroke-width:1.0;"/><text fill="#000000" font-family="Verdana" font-size="13" lengthAdjust="spacing" textLength="28.4883" x="581" y="465.8071">calls</text></g><!--link usecases to repos--><g id="link_usecases_repos"><path d="M778.73,478.8273 C747.62,508.7873 689.0121,565.2257 657.7721,595.3057 " fill="none" id="usecases-to-repos" style="stroke:#000000;stroke-width:1.0;"/><polygon fill="#000000" points="653.45,599.4673,662.7076,596.1063,657.0518,595.9993,657.1588,590.3434,653.45,599.4673" style="stroke:#000000;stroke-width:1.0;"/><text fill="#000000" font-family="Verdana" font-size="13" lengthAdjust="spacing" textLength="29.5166" x="745" y="524.8071">uses</text></g><!--link repos to room--><g id="link_repos_room"><path d="M581.87,630.1473 C481.27,651.3173 267.05,698.9173 200,733.7373 C174.07,747.2073 153.3175,765.7499 137.6675,781.6599 " fill="none" id="repos-to-room" style="stroke:#000000;stroke-width:1.0;"/><polygon fill="#000000" points="133.46,785.9373,142.623,782.3262,136.9663,782.3728,136.9197,776.7161,133.46,785.9373" style="stroke:#000000;stroke-width:1.0;"/><text fill="#000000" font-family="Verdana" font-size="13" lengthAdjust="spacing" textLength="44.0972" x="260" y="722.8071">caches</text></g><!--link repos to datastore--><g id="link_repos_datastore"><path d="M586.3,636.7973 C533.72,656.7373 448.45,691.9873 381,733.7373 C358.72,747.5273 339.4167,760.6242 320.1767,774.1642 " fill="none" id="repos-to-datastore" style="stroke:#000000;stroke-width:1.0;"/><polygon fill="#000000" points="315.27,777.6173,324.9322,775.7088,319.359,774.7397,320.3281,769.1665,315.27,777.6173" style="stroke:#000000;stroke-width:1.0;"/><text fill="#000000" font-family="Verdana" font-size="13" lengthAdjust="spacing" textLength="87.8706" x="421" y="722.8071">stores tokens</text></g><!--link repos to firebaseDB--><g id="link_repos_firebaseDB"><path d="M635,636.9273 C635,672.1973 635,744.8773 635,780.0973 " fill="none" id="repos-to-firebaseDB" style="stroke:#000000;stroke-width:1.0;"/><polygon fill="#000000" points="635,786.0973,639,777.0973,635,781.0973,631,777.0973,635,786.0973" style="stroke:#000000;stroke-width:1.0;"/><text fill="#000000" font-family="Verdana" font-size="13" lengthAdjust="spacing" textLength="69.6465" x="636" y="722.8071">syncs data</text></g><!--link repos to firebaseAuth--><g id="link_repos_firebaseAuth"><path d="M614.03,637.0373 C593.7,654.6073 562.3,682.5573 537,708.7373 C512.15,734.4573 489.4361,761.8084 473.7661,781.3284 " fill="none" id="repos-to-firebaseAuth" style="stroke:#000000;stroke-width:1.0;"/><polygon fill="#000000" points="470.01,786.0073,478.7633,781.493,473.14,782.1082,472.5248,776.4849,470.01,786.0073" style="stroke:#000000;stroke-width:1.0;"/><text fill="#000000" font-family="Verdana" font-size="13" lengthAdjust="spacing" textLength="88.2642" x="538" y="722.8071">authenticates</text></g><!--link repos to fcm--><g id="link_repos_fcm"><path d="M654.08,636.9273 C692.12,672.1973 772.59,746.7981 810.58,782.0181 " fill="none" id="repos-to-fcm" style="stroke:#000000;stroke-width:1.0;"/><polygon fill="#000000" points="814.98,786.0973,811.0994,777.0452,811.3133,782.698,805.6605,782.9119,814.98,786.0973" style="stroke:#000000;stroke-width:1.0;"/><text fill="#000000" font-family="Verdana" font-size="13" lengthAdjust="spacing" textLength="79.1045" x="747" y="722.8071">notifications</text></g><!--link repos to firebaseAI--><g id="link_repos_firebaseAI"><path d="M688.06,635.6173 C748.42,655.1973 849.09,690.7773 930,733.7373 C958.64,748.9473 984.1206,767.1138 1003.9606,782.3438 " fill="none" id="repos-to-firebaseAI" style="stroke:#000000;stroke-width:1.0;"/><polygon fill="#000000" points="1008.72,785.9973,1004.0166,777.3441,1004.7538,782.9527,999.1452,783.69,1008.72,785.9973" style="stroke:#000000;stroke-width:1.0;"/><text fill="#000000" font-family="Verdana" font-size="13" lengthAdjust="spacing" textLength="66.6313" x="908" y="722.8071">AI queries</text></g><!--SRC=[TLHDRzim3BtxLsWzjOVyWHu69CtI1KY68jbssNPW7SOMOecUH6SmXlxtKPRZMbxYYy7tdaZnIn-uH8Egha3Rp9-qhS61KJcPcYnQtdDReNAOCzYYmYnZpG9iM_M5cBKjIb7FrBxrZ4RDNLvg5d7ZH5f3Ve82rTsBGo- -W3LPjO4MtPtwcodvVgmS54Ou_qk1LyUB5Sdl6lziwO1LPCzYciwCzFm0DQEB9FH6zZOAl2GZUKr2VlEedi1ZFDTup8FHHuHA7u2fTteUpDGjC4oSxh0chqMfUxyk094RfT1VlyC7TnlAeRfuYjw8Z0fHNkLgqPqWx_nNEg7TWfNZxgUz3ygznCQ7JYit1X_Cxi3R9DeE3J4cuLRQOOYavWsNiH4z4e0hkXr2nLhcPhb8vCl55V4MlOT2HYLAStCjy5hTFwFHLZ-ayTTz3fB5C1ngDliu6WRrgEZLepkZLnjznb2DR4G7zQNBefLQImScVDUjWHpKOwe9GnAD3Wuj2WVoCi67uWlP_RtYqAsnvhrSGTJQFFRiYYBKNpGWFybSvy19C2cci9PO7mCdwtKjZ1JtCLJuTuDXFBDC3iXEww9aHSTawMPgGzAgorPso6Soc03xic5v119iRRtiDoVOWaWUb2B1FZa7zl2VopWZAROYrvW4wPwS17bnTDIZgw0zX7BWDCVBDehNlYZo2hXXQTk4wYzpW-skTOEBsTqW-tBSO9-eSNuQiw_g21qI_0S0]--></g></svg>