<svg xmlns="http://www.w3.org/2000/svg" xmlns:xlink="http://www.w3.org/1999/xlink" contentStyleType="text/css" height="1086px" preserveAspectRatio="none" style="width:2154px;height:1086px;background:#FFFFFF;" version="1.1" viewBox="0 0 2154 1086" width="2154px" zoomAndPan="magnify"><title>My Nottingham - Core Class Diagram</title><defs/><g><text fill="#000000" font-family="Verdana" font-size="22" font-weight="bold" lengthAdjust="spacing" textLength="454.8994" x="845.0503" y="37.1182">My Nottingham - Core Class Diagram</text><!--cluster Models--><g id="cluster_Models"><path d="M455.5,813.7373 L511.5566,813.7373 A3.75,3.75 0 0 1 514.0566,816.2373 L521.0566,836.752 L1841.5,836.752 A2.5,2.5 0 0 1 1844,839.252 L1844,1077.2373 A2.5,2.5 0 0 1 1841.5,1079.7373 L455.5,1079.7373 A2.5,2.5 0 0 1 453,1077.2373 L453,816.2373 A2.5,2.5 0 0 1 455.5,813.7373 " fill="#FFFFFF" style="stroke:#000000;stroke-width:1.0;"/><line style="stroke:#000000;stroke-width:1.0;" x1="453" x2="521.0566" y1="836.752" y2="836.752"/><text fill="#000000" font-family="Verdana" font-size="14" font-weight="bold" lengthAdjust="spacing" textLength="55.0566" x="457" y="829.8125">Models</text></g><!--cluster Repositories--><g id="cluster_Repositories"><path d="M128.5,427.7373 L227.5752,427.7373 A3.75,3.75 0 0 1 230.0752,430.2373 L237.0752,450.752 L2144.5,450.752 A2.5,2.5 0 0 1 2147,453.252 L2147,762.2373 A2.5,2.5 0 0 1 2144.5,764.7373 L128.5,764.7373 A2.5,2.5 0 0 1 126,762.2373 L126,430.2373 A2.5,2.5 0 0 1 128.5,427.7373 " fill="#FFFFFF" style="stroke:#000000;stroke-width:1.0;"/><line style="stroke:#000000;stroke-width:1.0;" x1="126" x2="237.0752" y1="450.752" y2="450.752"/><text fill="#000000" font-family="Verdana" font-size="14" font-weight="bold" lengthAdjust="spacing" textLength="98.0752" x="130" y="443.8125">Repositories</text></g><!--cluster ViewModels--><g id="cluster_ViewModels"><path d="M13.5,58.7373 L108.043,58.7373 A3.75,3.75 0 0 1 110.543,61.2373 L117.543,81.752 L739.5,81.752 A2.5,2.5 0 0 1 742,84.252 L742,376.2373 A2.5,2.5 0 0 1 739.5,378.7373 L13.5,378.7373 A2.5,2.5 0 0 1 11,376.2373 L11,61.2373 A2.5,2.5 0 0 1 13.5,58.7373 " fill="#FFFFFF" style="stroke:#000000;stroke-width:1.0;"/><line style="stroke:#000000;stroke-width:1.0;" x1="11" x2="117.543" y1="81.752" y2="81.752"/><text fill="#000000" font-family="Verdana" font-size="14" font-weight="bold" lengthAdjust="spacing" textLength="93.543" x="15" y="74.8125">ViewModels</text></g><!--class User--><g id="elem_User"><rect codeLine="7" fill="#FFFFFF" height="214.1465" id="User" rx="2.5" ry="2.5" style="stroke:#000000;stroke-width:1.0;" width="194.041" x="1634" y="849.7373"/><ellipse cx="1711.3428" cy="863.7373" fill="#FFFFFF" rx="9" ry="9" style="stroke:#000000;stroke-width:1.0;"/><path d="M1714.1084,865.2686 L1716.499,866.0186 Q1715.9521,868.0029 1714.6709,868.9717 Q1713.4053,869.9404 1711.4365,869.9404 Q1709.0146,869.9404 1707.4521,868.2842 Q1705.9053,866.6279 1705.9053,863.7529 Q1705.9053,860.7217 1707.4678,859.0498 Q1709.0303,857.3623 1711.5928,857.3623 Q1713.8271,857.3623 1715.2178,858.6748 Q1716.0459,859.4561 1716.4678,860.9248 L1714.0303,861.5029 Q1713.8115,860.5498 1713.124,860.0029 Q1712.4521,859.4561 1711.4678,859.4561 Q1710.1084,859.4561 1709.2646,860.4404 Q1708.4365,861.4092 1708.4365,863.5811 Q1708.4365,865.8779 1709.2646,866.8623 Q1710.0928,867.8467 1711.4209,867.8467 Q1712.4053,867.8467 1713.1084,867.2217 Q1713.8115,866.5967 1714.1084,865.2686 Z " fill="#000000"/><text fill="#000000" font-family="Verdana" font-size="14" lengthAdjust="spacing" textLength="31.8555" x="1728.8428" y="869.3052">User</text><line style="stroke:#000000;stroke-width:1.0;" x1="1635" x2="1827.041" y1="877.7373" y2="877.7373"/><text fill="#000000" font-family="Verdana" font-size="14" lengthAdjust="spacing" textLength="77.7861" x="1640" y="895.8125">+id: String</text><text fill="#000000" font-family="Verdana" font-size="14" lengthAdjust="spacing" textLength="134.9141" x="1640" y="912.8271">+username: String</text><text fill="#000000" font-family="Verdana" font-size="14" lengthAdjust="spacing" textLength="127.5244" x="1640" y="929.8418">+fullName: String</text><text fill="#000000" font-family="Verdana" font-size="14" lengthAdjust="spacing" textLength="103.2705" x="1640" y="946.8564">+email: String</text><text fill="#000000" font-family="Verdana" font-size="14" lengthAdjust="spacing" textLength="91.875" x="1640" y="963.8711">+role: String</text><text fill="#000000" font-family="Verdana" font-size="14" lengthAdjust="spacing" textLength="182.041" x="1640" y="980.8857">+profileImageUrl: String?</text><text fill="#000000" font-family="Verdana" font-size="14" lengthAdjust="spacing" textLength="140.5811" x="1640" y="997.9004">+studentId: String?</text><text fill="#000000" font-family="Verdana" font-size="14" lengthAdjust="spacing" textLength="155.4561" x="1640" y="1014.915">+employeeId: String?</text><text fill="#000000" font-family="Verdana" font-size="14" lengthAdjust="spacing" textLength="119.9844" x="1640" y="1031.9297">+faculty: String?</text><text fill="#000000" font-family="Verdana" font-size="14" lengthAdjust="spacing" textLength="154.875" x="1640" y="1048.9443">+department: String?</text><line style="stroke:#000000;stroke-width:1.0;" x1="1635" x2="1827.041" y1="1055.8838" y2="1055.8838"/></g><!--class Conversation--><g id="elem_Conversation"><rect codeLine="20" fill="#FFFFFF" height="214.1465" id="Conversation" rx="2.5" ry="2.5" style="stroke:#000000;stroke-width:1.0;" width="206.127" x="1194" y="849.7373"/><ellipse cx="1247.2393" cy="863.7373" fill="#FFFFFF" rx="9" ry="9" style="stroke:#000000;stroke-width:1.0;"/><path d="M1250.0049,865.2686 L1252.3955,866.0186 Q1251.8486,868.0029 1250.5674,868.9717 Q1249.3018,869.9404 1247.333,869.9404 Q1244.9111,869.9404 1243.3486,868.2842 Q1241.8018,866.6279 1241.8018,863.7529 Q1241.8018,860.7217 1243.3643,859.0498 Q1244.9268,857.3623 1247.4893,857.3623 Q1249.7236,857.3623 1251.1143,858.6748 Q1251.9424,859.4561 1252.3643,860.9248 L1249.9268,861.5029 Q1249.708,860.5498 1249.0205,860.0029 Q1248.3486,859.4561 1247.3643,859.4561 Q1246.0049,859.4561 1245.1611,860.4404 Q1244.333,861.4092 1244.333,863.5811 Q1244.333,865.8779 1245.1611,866.8623 Q1245.9893,867.8467 1247.3174,867.8467 Q1248.3018,867.8467 1249.0049,867.2217 Q1249.708,866.5967 1250.0049,865.2686 Z " fill="#000000"/><text fill="#000000" font-family="Verdana" font-size="14" lengthAdjust="spacing" textLength="92.1484" x="1264.7393" y="869.3052">Conversation</text><line style="stroke:#000000;stroke-width:1.0;" x1="1195" x2="1399.127" y1="877.7373" y2="877.7373"/><text fill="#000000" font-family="Verdana" font-size="14" lengthAdjust="spacing" textLength="77.7861" x="1200" y="895.8125">+id: String</text><text fill="#000000" font-family="Verdana" font-size="14" lengthAdjust="spacing" textLength="154.9434" x="1200" y="912.8271">+participantId: String</text><text fill="#000000" font-family="Verdana" font-size="14" lengthAdjust="spacing" textLength="181.166" x="1200" y="929.8418">+participantName: String</text><text fill="#000000" font-family="Verdana" font-size="14" lengthAdjust="spacing" textLength="194.127" x="1200" y="946.8564">+participantAvatar: String?</text><text fill="#000000" font-family="Verdana" font-size="14" lengthAdjust="spacing" textLength="150.4795" x="1200" y="963.8711">+lastMessage: String</text><text fill="#000000" font-family="Verdana" font-size="14" lengthAdjust="spacing" textLength="176.292" x="1200" y="980.8857">+lastMessageTime: Long</text><text fill="#000000" font-family="Verdana" font-size="14" lengthAdjust="spacing" textLength="133.6768" x="1200" y="997.9004">+unreadCount: Int</text><text fill="#000000" font-family="Verdana" font-size="14" lengthAdjust="spacing" textLength="132.8223" x="1200" y="1014.915">+isGroup: Boolean</text><text fill="#000000" font-family="Verdana" font-size="14" lengthAdjust="spacing" textLength="136.9785" x="1200" y="1031.9297">+isPinned: Boolean</text><text fill="#000000" font-family="Verdana" font-size="14" lengthAdjust="spacing" textLength="134.6748" x="1200" y="1048.9443">+isOnline: Boolean</text><line style="stroke:#000000;stroke-width:1.0;" x1="1195" x2="1399.127" y1="1055.8838" y2="1055.8838"/></g><!--class ChatMessage--><g id="elem_ChatMessage"><rect codeLine="33" fill="#FFFFFF" height="163.1025" id="ChatMessage" rx="2.5" ry="2.5" style="stroke:#000000;stroke-width:1.0;" width="173.2119" x="985.5" y="875.2373"/><ellipse cx="1022.1048" cy="889.2373" fill="#FFFFFF" rx="9" ry="9" style="stroke:#000000;stroke-width:1.0;"/><path d="M1024.8704,890.7686 L1027.261,891.5186 Q1026.7142,893.5029 1025.4329,894.4717 Q1024.1673,895.4404 1022.1985,895.4404 Q1019.7767,895.4404 1018.2142,893.7842 Q1016.6673,892.1279 1016.6673,889.2529 Q1016.6673,886.2217 1018.2298,884.5498 Q1019.7923,882.8623 1022.3548,882.8623 Q1024.5892,882.8623 1025.9798,884.1748 Q1026.8079,884.9561 1027.2298,886.4248 L1024.7923,887.0029 Q1024.5735,886.0498 1023.886,885.5029 Q1023.2142,884.9561 1022.2298,884.9561 Q1020.8704,884.9561 1020.0267,885.9404 Q1019.1985,886.9092 1019.1985,889.0811 Q1019.1985,891.3779 1020.0267,892.3623 Q1020.8548,893.3467 1022.1829,893.3467 Q1023.1673,893.3467 1023.8704,892.7217 Q1024.5735,892.0967 1024.8704,890.7686 Z " fill="#000000"/><text fill="#000000" font-family="Verdana" font-size="14" lengthAdjust="spacing" textLength="92.7568" x="1039.3503" y="894.8052">ChatMessage</text><line style="stroke:#000000;stroke-width:1.0;" x1="986.5" x2="1157.7119" y1="903.2373" y2="903.2373"/><text fill="#000000" font-family="Verdana" font-size="14" lengthAdjust="spacing" textLength="77.7861" x="991.5" y="921.3125">+id: String</text><text fill="#000000" font-family="Verdana" font-size="14" lengthAdjust="spacing" textLength="127.3672" x="991.5" y="938.3271">+senderId: String</text><text fill="#000000" font-family="Verdana" font-size="14" lengthAdjust="spacing" textLength="153.5898" x="991.5" y="955.3418">+senderName: String</text><text fill="#000000" font-family="Verdana" font-size="14" lengthAdjust="spacing" textLength="127.2373" x="991.5" y="972.3564">+message: String</text><text fill="#000000" font-family="Verdana" font-size="14" lengthAdjust="spacing" textLength="131.4824" x="991.5" y="989.3711">+timestamp: Long</text><text fill="#000000" font-family="Verdana" font-size="14" lengthAdjust="spacing" textLength="125.1182" x="991.5" y="1006.3857">+isRead: Boolean</text><text fill="#000000" font-family="Verdana" font-size="14" lengthAdjust="spacing" textLength="161.2119" x="991.5" y="1023.4004">+messageType: String</text><line style="stroke:#000000;stroke-width:1.0;" x1="986.5" x2="1157.7119" y1="1030.3398" y2="1030.3398"/></g><!--class ForumPost--><g id="elem_ForumPost"><rect codeLine="43" fill="#FFFFFF" height="214.1465" id="ForumPost" rx="2.5" ry="2.5" style="stroke:#000000;stroke-width:1.0;" width="164.1748" x="1435" y="849.7373"/><ellipse cx="1475.9653" cy="863.7373" fill="#FFFFFF" rx="9" ry="9" style="stroke:#000000;stroke-width:1.0;"/><path d="M1478.731,865.2686 L1481.1216,866.0186 Q1480.5747,868.0029 1479.2935,868.9717 Q1478.0278,869.9404 1476.0591,869.9404 Q1473.6372,869.9404 1472.0747,868.2842 Q1470.5278,866.6279 1470.5278,863.7529 Q1470.5278,860.7217 1472.0903,859.0498 Q1473.6528,857.3623 1476.2153,857.3623 Q1478.4497,857.3623 1479.8403,858.6748 Q1480.6685,859.4561 1481.0903,860.9248 L1478.6528,861.5029 Q1478.4341,860.5498 1477.7466,860.0029 Q1477.0747,859.4561 1476.0903,859.4561 Q1474.731,859.4561 1473.8872,860.4404 Q1473.0591,861.4092 1473.0591,863.5811 Q1473.0591,865.8779 1473.8872,866.8623 Q1474.7153,867.8467 1476.0435,867.8467 Q1477.0278,867.8467 1477.731,867.2217 Q1478.4341,866.5967 1478.731,865.2686 Z " fill="#000000"/><text fill="#000000" font-family="Verdana" font-size="14" lengthAdjust="spacing" textLength="74.7441" x="1493.4653" y="869.3052">ForumPost</text><line style="stroke:#000000;stroke-width:1.0;" x1="1436" x2="1598.1748" y1="877.7373" y2="877.7373"/><text fill="#000000" font-family="Verdana" font-size="14" lengthAdjust="spacing" textLength="77.7861" x="1441" y="895.8125">+id: String</text><text fill="#000000" font-family="Verdana" font-size="14" lengthAdjust="spacing" textLength="125.9521" x="1441" y="912.8271">+authorId: String</text><text fill="#000000" font-family="Verdana" font-size="14" lengthAdjust="spacing" textLength="152.1748" x="1441" y="929.8418">+authorName: String</text><text fill="#000000" font-family="Verdana" font-size="14" lengthAdjust="spacing" textLength="92.2783" x="1441" y="946.8564">+title: String</text><text fill="#000000" font-family="Verdana" font-size="14" lengthAdjust="spacing" textLength="118.1045" x="1441" y="963.8711">+content: String</text><text fill="#000000" font-family="Verdana" font-size="14" lengthAdjust="spacing" textLength="126.2598" x="1441" y="980.8857">+category: String</text><text fill="#000000" font-family="Verdana" font-size="14" lengthAdjust="spacing" textLength="74.6074" x="1441" y="997.9004">+likes: Int</text><text fill="#000000" font-family="Verdana" font-size="14" lengthAdjust="spacing" textLength="82.2227" x="1441" y="1014.915">+views: Int</text><text fill="#000000" font-family="Verdana" font-size="14" lengthAdjust="spacing" textLength="150.2539" x="1441" y="1031.9297">+commentCount: Int</text><text fill="#000000" font-family="Verdana" font-size="14" lengthAdjust="spacing" textLength="131.4824" x="1441" y="1048.9443">+timestamp: Long</text><line style="stroke:#000000;stroke-width:1.0;" x1="1436" x2="1598.1748" y1="1055.8838" y2="1055.8838"/></g><!--class Errand--><g id="elem_Errand"><rect codeLine="56" fill="#FFFFFF" height="180.1172" id="Errand" rx="2.5" ry="2.5" style="stroke:#000000;stroke-width:1.0;" width="154.126" x="796" y="866.7373"/><ellipse cx="845.917" cy="880.7373" fill="#FFFFFF" rx="9" ry="9" style="stroke:#000000;stroke-width:1.0;"/><path d="M848.6826,882.2686 L851.0732,883.0186 Q850.5264,885.0029 849.2451,885.9717 Q847.9795,886.9404 846.0107,886.9404 Q843.5889,886.9404 842.0264,885.2842 Q840.4795,883.6279 840.4795,880.7529 Q840.4795,877.7217 842.042,876.0498 Q843.6045,874.3623 846.167,874.3623 Q848.4014,874.3623 849.792,875.6748 Q850.6201,876.4561 851.042,877.9248 L848.6045,878.5029 Q848.3857,877.5498 847.6982,877.0029 Q847.0264,876.4561 846.042,876.4561 Q844.6826,876.4561 843.8389,877.4404 Q843.0107,878.4092 843.0107,880.5811 Q843.0107,882.8779 843.8389,883.8623 Q844.667,884.8467 845.9951,884.8467 Q846.9795,884.8467 847.6826,884.2217 Q848.3857,883.5967 848.6826,882.2686 Z " fill="#000000"/><text fill="#000000" font-family="Verdana" font-size="14" lengthAdjust="spacing" textLength="46.792" x="863.417" y="886.3052">Errand</text><line style="stroke:#000000;stroke-width:1.0;" x1="797" x2="949.126" y1="894.7373" y2="894.7373"/><text fill="#000000" font-family="Verdana" font-size="14" lengthAdjust="spacing" textLength="77.7861" x="802" y="912.8125">+id: String</text><text fill="#000000" font-family="Verdana" font-size="14" lengthAdjust="spacing" textLength="124.1816" x="802" y="929.8271">+posterId: String</text><text fill="#000000" font-family="Verdana" font-size="14" lengthAdjust="spacing" textLength="92.2783" x="802" y="946.8418">+title: String</text><text fill="#000000" font-family="Verdana" font-size="14" lengthAdjust="spacing" textLength="142.126" x="802" y="963.8564">+description: String</text><text fill="#000000" font-family="Verdana" font-size="14" lengthAdjust="spacing" textLength="126.2598" x="802" y="980.8711">+category: String</text><text fill="#000000" font-family="Verdana" font-size="14" lengthAdjust="spacing" textLength="120.6611" x="802" y="997.8857">+reward: Double</text><text fill="#000000" font-family="Verdana" font-size="14" lengthAdjust="spacing" textLength="108.1104" x="802" y="1014.9004">+status: String</text><text fill="#000000" font-family="Verdana" font-size="14" lengthAdjust="spacing" textLength="124.291" x="802" y="1031.915">+createdAt: Long</text><line style="stroke:#000000;stroke-width:1.0;" x1="797" x2="949.126" y1="1038.8545" y2="1038.8545"/></g><!--class ShuttleRoute--><g id="elem_ShuttleRoute"><rect codeLine="67" fill="#FFFFFF" height="146.0879" id="ShuttleRoute" rx="2.5" ry="2.5" style="stroke:#000000;stroke-width:1.0;" width="290.7217" x="469.5" y="883.7373"/><ellipse cx="565.3853" cy="897.7373" fill="#FFFFFF" rx="9" ry="9" style="stroke:#000000;stroke-width:1.0;"/><path d="M568.1509,899.2686 L570.5415,900.0186 Q569.9946,902.0029 568.7134,902.9717 Q567.4478,903.9404 565.479,903.9404 Q563.0571,903.9404 561.4946,902.2842 Q559.9478,900.6279 559.9478,897.7529 Q559.9478,894.7217 561.5103,893.0498 Q563.0728,891.3623 565.6353,891.3623 Q567.8696,891.3623 569.2603,892.6748 Q570.0884,893.4561 570.5103,894.9248 L568.0728,895.5029 Q567.854,894.5498 567.1665,894.0029 Q566.4946,893.4561 565.5103,893.4561 Q564.1509,893.4561 563.3071,894.4404 Q562.479,895.4092 562.479,897.5811 Q562.479,899.8779 563.3071,900.8623 Q564.1353,901.8467 565.4634,901.8467 Q566.4478,901.8467 567.1509,901.2217 Q567.854,900.5967 568.1509,899.2686 Z " fill="#000000"/><text fill="#000000" font-family="Verdana" font-size="14" lengthAdjust="spacing" textLength="91.4512" x="582.8853" y="903.3052">ShuttleRoute</text><line style="stroke:#000000;stroke-width:1.0;" x1="470.5" x2="759.2217" y1="911.7373" y2="911.7373"/><text fill="#000000" font-family="Verdana" font-size="14" lengthAdjust="spacing" textLength="117.0244" x="475.5" y="929.8125">+routeId: String</text><text fill="#000000" font-family="Verdana" font-size="14" lengthAdjust="spacing" textLength="143.2471" x="475.5" y="946.8271">+routeName: String</text><text fill="#000000" font-family="Verdana" font-size="14" lengthAdjust="spacing" textLength="142.126" x="475.5" y="963.8418">+description: String</text><text fill="#000000" font-family="Verdana" font-size="14" lengthAdjust="spacing" textLength="153.4258" x="475.5" y="980.8564">+specialNote: String?</text><text fill="#000000" font-family="Verdana" font-size="14" lengthAdjust="spacing" textLength="147.998" x="475.5" y="997.8711">+vehicleType: String</text><text fill="#000000" font-family="Verdana" font-size="14" lengthAdjust="spacing" textLength="278.7217" x="475.5" y="1014.8857">+schedules: Map&lt;DayType, Schedule&gt;</text><line style="stroke:#000000;stroke-width:1.0;" x1="470.5" x2="759.2217" y1="1021.8252" y2="1021.8252"/></g><!--class IMessageRepository--><g id="elem_IMessageRepository"><rect codeLine="78" fill="#FFFFFF" height="95.0439" id="IMessageRepository" rx="2.5" ry="2.5" style="stroke:#000000;stroke-width:1.0;" width="597.5186" x="715" y="480.7373"/><ellipse cx="939.6299" cy="494.7373" fill="#FFFFFF" rx="9" ry="9" style="stroke:#000000;stroke-width:1.0;"/><path d="M938.7861,500.7373 L938.7861,488.5654 L941.2549,488.5654 L941.2549,500.7373 L938.7861,500.7373 Z " fill="#000000"/><text fill="#000000" font-family="Verdana" font-size="14" font-style="italic" lengthAdjust="spacing" textLength="140.7588" x="957.1299" y="500.3052">IMessageRepository</text><line style="stroke:#000000;stroke-width:1.0;" x1="716" x2="1311.5186" y1="508.7373" y2="508.7373"/><line style="stroke:#000000;stroke-width:1.0;" x1="716" x2="1311.5186" y1="516.7373" y2="516.7373"/><text fill="#000000" font-family="Verdana" font-size="14" lengthAdjust="spacing" textLength="482.4258" x="721" y="534.8125">+getConversationsFlow(userId: String): Flow&lt;List&lt;Conversation&gt;&gt;</text><text fill="#000000" font-family="Verdana" font-size="14" lengthAdjust="spacing" textLength="510.2822" x="721" y="551.8271">+getMessagesFlow(conversationId: String): Flow&lt;List&lt;ChatMessage&gt;&gt;</text><text fill="#000000" font-family="Verdana" font-size="14" lengthAdjust="spacing" textLength="585.5186" x="721" y="568.8418">+sendMessage(conversationId: String, message: ChatMessage): Result&lt;Boolean&gt;</text></g><!--class FirebaseMessageRepository--><g id="elem_FirebaseMessageRepository"><rect codeLine="84" fill="#FFFFFF" height="95.0439" id="FirebaseMessageRepository" rx="2.5" ry="2.5" style="stroke:#000000;stroke-width:1.0;" width="318.5713" x="889.5" y="653.7373"/><ellipse cx="948.1021" cy="667.7373" fill="#FFFFFF" rx="9" ry="9" style="stroke:#000000;stroke-width:1.0;"/><path d="M950.8677,669.2686 L953.2583,670.0186 Q952.7114,672.0029 951.4302,672.9717 Q950.1646,673.9404 948.1958,673.9404 Q945.7739,673.9404 944.2114,672.2842 Q942.6646,670.6279 942.6646,667.7529 Q942.6646,664.7217 944.2271,663.0498 Q945.7896,661.3623 948.3521,661.3623 Q950.5864,661.3623 951.9771,662.6748 Q952.8052,663.4561 953.2271,664.9248 L950.7896,665.5029 Q950.5708,664.5498 949.8833,664.0029 Q949.2114,663.4561 948.2271,663.4561 Q946.8677,663.4561 946.0239,664.4404 Q945.1958,665.4092 945.1958,667.5811 Q945.1958,669.8779 946.0239,670.8623 Q946.8521,671.8467 948.1802,671.8467 Q949.1646,671.8467 949.8677,671.2217 Q950.5708,670.5967 950.8677,669.2686 Z " fill="#000000"/><text fill="#000000" font-family="Verdana" font-size="14" lengthAdjust="spacing" textLength="193.8672" x="965.6021" y="673.3052">FirebaseMessageRepository</text><line style="stroke:#000000;stroke-width:1.0;" x1="890.5" x2="1207.0713" y1="681.7373" y2="681.7373"/><text fill="#000000" font-family="Verdana" font-size="14" lengthAdjust="spacing" textLength="206.3086" x="895.5" y="699.8125">-database: FirebaseDatabase</text><text fill="#000000" font-family="Verdana" font-size="14" lengthAdjust="spacing" textLength="273.6221" x="895.5" y="716.8271">-conversationsRef: DatabaseReference</text><text fill="#000000" font-family="Verdana" font-size="14" lengthAdjust="spacing" textLength="306.5713" x="895.5" y="733.8418">-userConversationsRef: DatabaseReference</text><line style="stroke:#000000;stroke-width:1.0;" x1="890.5" x2="1207.0713" y1="740.7813" y2="740.7813"/></g><!--class FirebaseUserRepository--><g id="elem_FirebaseUserRepository"><rect codeLine="90" fill="#FFFFFF" height="129.0732" id="FirebaseUserRepository" rx="2.5" ry="2.5" style="stroke:#000000;stroke-width:1.0;" width="401.5322" x="1729" y="463.7373"/><ellipse cx="1843.2534" cy="477.7373" fill="#FFFFFF" rx="9" ry="9" style="stroke:#000000;stroke-width:1.0;"/><path d="M1846.019,479.2686 L1848.4097,480.0186 Q1847.8628,482.0029 1846.5815,482.9717 Q1845.3159,483.9404 1843.3472,483.9404 Q1840.9253,483.9404 1839.3628,482.2842 Q1837.8159,480.6279 1837.8159,477.7529 Q1837.8159,474.7217 1839.3784,473.0498 Q1840.9409,471.3623 1843.5034,471.3623 Q1845.7378,471.3623 1847.1284,472.6748 Q1847.9565,473.4561 1848.3784,474.9248 L1845.9409,475.5029 Q1845.7222,474.5498 1845.0347,474.0029 Q1844.3628,473.4561 1843.3784,473.4561 Q1842.019,473.4561 1841.1753,474.4404 Q1840.3472,475.4092 1840.3472,477.5811 Q1840.3472,479.8779 1841.1753,480.8623 Q1842.0034,481.8467 1843.3315,481.8467 Q1844.3159,481.8467 1845.019,481.2217 Q1845.7222,480.5967 1846.019,479.2686 Z " fill="#000000"/><text fill="#000000" font-family="Verdana" font-size="14" lengthAdjust="spacing" textLength="165.5254" x="1860.7534" y="483.3052">FirebaseUserRepository</text><line style="stroke:#000000;stroke-width:1.0;" x1="1730" x2="2129.5322" y1="491.7373" y2="491.7373"/><text fill="#000000" font-family="Verdana" font-size="14" lengthAdjust="spacing" textLength="206.3086" x="1735" y="509.8125">-database: FirebaseDatabase</text><text fill="#000000" font-family="Verdana" font-size="14" lengthAdjust="spacing" textLength="141.0527" x="1735" y="526.8271">-auth: FirebaseAuth</text><line style="stroke:#000000;stroke-width:1.0;" x1="1730" x2="2129.5322" y1="533.7666" y2="533.7666"/><text fill="#000000" font-family="Verdana" font-size="14" lengthAdjust="spacing" textLength="389.5322" x="1735" y="551.8418">+login(email: String, password: String): Result&lt;User&gt;</text><text fill="#000000" font-family="Verdana" font-size="14" lengthAdjust="spacing" textLength="285.5986" x="1735" y="568.8564">+register(user: User): Result&lt;Boolean&gt;</text><text fill="#000000" font-family="Verdana" font-size="14" lengthAdjust="spacing" textLength="295.5449" x="1735" y="585.8711">+getUserProfile(uid: String): Flow&lt;User&gt;</text></g><!--class FirebaseForumRepository--><g id="elem_FirebaseForumRepository"><rect codeLine="98" fill="#FFFFFF" height="112.0586" id="FirebaseForumRepository" rx="2.5" ry="2.5" style="stroke:#000000;stroke-width:1.0;" width="346.1133" x="1348" y="472.2373"/><ellipse cx="1427.9746" cy="486.2373" fill="#FFFFFF" rx="9" ry="9" style="stroke:#000000;stroke-width:1.0;"/><path d="M1430.7402,487.7686 L1433.1309,488.5186 Q1432.584,490.5029 1431.3027,491.4717 Q1430.0371,492.4404 1428.0684,492.4404 Q1425.6465,492.4404 1424.084,490.7842 Q1422.5371,489.1279 1422.5371,486.2529 Q1422.5371,483.2217 1424.0996,481.5498 Q1425.6621,479.8623 1428.2246,479.8623 Q1430.459,479.8623 1431.8496,481.1748 Q1432.6777,481.9561 1433.0996,483.4248 L1430.6621,484.0029 Q1430.4434,483.0498 1429.7559,482.5029 Q1429.084,481.9561 1428.0996,481.9561 Q1426.7402,481.9561 1425.8965,482.9404 Q1425.0684,483.9092 1425.0684,486.0811 Q1425.0684,488.3779 1425.8965,489.3623 Q1426.7246,490.3467 1428.0527,490.3467 Q1429.0371,490.3467 1429.7402,489.7217 Q1430.4434,489.0967 1430.7402,487.7686 Z " fill="#000000"/><text fill="#000000" font-family="Verdana" font-size="14" lengthAdjust="spacing" textLength="178.6641" x="1445.4746" y="491.8052">FirebaseForumRepository</text><line style="stroke:#000000;stroke-width:1.0;" x1="1349" x2="1693.1133" y1="500.2373" y2="500.2373"/><text fill="#000000" font-family="Verdana" font-size="14" lengthAdjust="spacing" textLength="206.3086" x="1354" y="518.3125">-database: FirebaseDatabase</text><line style="stroke:#000000;stroke-width:1.0;" x1="1349" x2="1693.1133" y1="525.252" y2="525.252"/><text fill="#000000" font-family="Verdana" font-size="14" lengthAdjust="spacing" textLength="271.9336" x="1354" y="543.3271">+getPosts(): Flow&lt;List&lt;ForumPost&gt;&gt;</text><text fill="#000000" font-family="Verdana" font-size="14" lengthAdjust="spacing" textLength="334.1133" x="1354" y="560.3418">+createPost(post: ForumPost): Result&lt;String&gt;</text><text fill="#000000" font-family="Verdana" font-size="14" lengthAdjust="spacing" textLength="310.4609" x="1354" y="577.3564">+likePost(postId: String): Result&lt;Boolean&gt;</text></g><!--class InstattRepository--><g id="elem_InstattRepository"><rect codeLine="105" fill="#FFFFFF" height="112.0586" id="InstattRepository" rx="2.5" ry="2.5" style="stroke:#000000;stroke-width:1.0;" width="537.0068" x="142.5" y="472.2373"/><ellipse cx="346.3999" cy="486.2373" fill="#FFFFFF" rx="9" ry="9" style="stroke:#000000;stroke-width:1.0;"/><path d="M349.1655,487.7686 L351.5562,488.5186 Q351.0093,490.5029 349.728,491.4717 Q348.4624,492.4404 346.4937,492.4404 Q344.0718,492.4404 342.5093,490.7842 Q340.9624,489.1279 340.9624,486.2529 Q340.9624,483.2217 342.5249,481.5498 Q344.0874,479.8623 346.6499,479.8623 Q348.8843,479.8623 350.2749,481.1748 Q351.103,481.9561 351.5249,483.4248 L349.0874,484.0029 Q348.8687,483.0498 348.1812,482.5029 Q347.5093,481.9561 346.5249,481.9561 Q345.1655,481.9561 344.3218,482.9404 Q343.4937,483.9092 343.4937,486.0811 Q343.4937,488.3779 344.3218,489.3623 Q345.1499,490.3467 346.478,490.3467 Q347.4624,490.3467 348.1655,489.7217 Q348.8687,489.0967 349.1655,487.7686 Z " fill="#000000"/><text fill="#000000" font-family="Verdana" font-size="14" lengthAdjust="spacing" textLength="121.707" x="363.8999" y="491.8052">InstattRepository</text><line style="stroke:#000000;stroke-width:1.0;" x1="143.5" x2="678.5068" y1="500.2373" y2="500.2373"/><text fill="#000000" font-family="Verdana" font-size="14" lengthAdjust="spacing" textLength="206.3086" x="148.5" y="518.3125">-database: FirebaseDatabase</text><line style="stroke:#000000;stroke-width:1.0;" x1="143.5" x2="678.5068" y1="525.252" y2="525.252"/><text fill="#000000" font-family="Verdana" font-size="14" lengthAdjust="spacing" textLength="440.4395" x="148.5" y="543.3271">+getSessionStatus(scheduleId: String): Flow&lt;SessionStatus&gt;</text><text fill="#000000" font-family="Verdana" font-size="14" lengthAdjust="spacing" textLength="525.0068" x="148.5" y="560.3418">+markAttendance(sessionId: String, studentId: String): Result&lt;Boolean&gt;</text><text fill="#000000" font-family="Verdana" font-size="14" lengthAdjust="spacing" textLength="387.2559" x="148.5" y="577.3564">+unlockSession(scheduleId: String): Result&lt;Boolean&gt;</text></g><!--class BaseViewModel--><g id="elem_BaseViewModel"><rect codeLine="114" fill="#FFFFFF" height="112.0586" id="BaseViewModel" rx="2.5" ry="2.5" style="stroke:#000000;stroke-width:1.0;" width="290.3525" x="436" y="94.7373"/><ellipse cx="523.4087" cy="108.7373" fill="#FFFFFF" rx="9" ry="9" style="stroke:#000000;stroke-width:1.0;"/><path d="M530.1118,113.7373 L527.4399,113.7373 L526.3774,110.9717 L521.5181,110.9717 L520.5181,113.7373 L517.9087,113.7373 L522.6431,101.5654 L525.2524,101.5654 L530.1118,113.7373 Z M525.5962,108.9248 L523.9243,104.4092 L522.2681,108.9248 L525.5962,108.9248 Z " fill="#000000"/><text fill="#000000" font-family="Verdana" font-size="14" font-style="italic" lengthAdjust="spacing" textLength="108.0352" x="540.9087" y="114.3052">BaseViewModel</text><line style="stroke:#000000;stroke-width:1.0;" x1="437" x2="725.3525" y1="122.7373" y2="122.7373"/><text fill="#000000" font-family="Verdana" font-size="14" lengthAdjust="spacing" textLength="278.3525" x="442" y="140.8125">#_loading: MutableLiveData&lt;Boolean&gt;</text><text fill="#000000" font-family="Verdana" font-size="14" lengthAdjust="spacing" textLength="213.9648" x="442" y="157.8271">+loading: LiveData&lt;Boolean&gt;</text><text fill="#000000" font-family="Verdana" font-size="14" lengthAdjust="spacing" textLength="256.2998" x="442" y="174.8418">#_error: MutableLiveData&lt;String?&gt;</text><text fill="#000000" font-family="Verdana" font-size="14" lengthAdjust="spacing" textLength="191.9121" x="442" y="191.8564">+error: LiveData&lt;String?&gt;</text><line style="stroke:#000000;stroke-width:1.0;" x1="437" x2="725.3525" y1="198.7959" y2="198.7959"/></g><!--class ChatDetailViewModel--><g id="elem_ChatDetailViewModel"><rect codeLine="121" fill="#FFFFFF" height="95.0439" id="ChatDetailViewModel" rx="2.5" ry="2.5" style="stroke:#000000;stroke-width:1.0;" width="328.4561" x="41" y="267.7373"/><ellipse cx="127.626" cy="281.7373" fill="#FFFFFF" rx="9" ry="9" style="stroke:#000000;stroke-width:1.0;"/><path d="M130.3916,283.2686 L132.7822,284.0186 Q132.2354,286.0029 130.9541,286.9717 Q129.6885,287.9404 127.7197,287.9404 Q125.2979,287.9404 123.7354,286.2842 Q122.1885,284.6279 122.1885,281.7529 Q122.1885,278.7217 123.751,277.0498 Q125.3135,275.3623 127.876,275.3623 Q130.1104,275.3623 131.501,276.6748 Q132.3291,277.4561 132.751,278.9248 L130.3135,279.5029 Q130.0947,278.5498 129.4072,278.0029 Q128.7354,277.4561 127.751,277.4561 Q126.3916,277.4561 125.5479,278.4404 Q124.7197,279.4092 124.7197,281.5811 Q124.7197,283.8779 125.5479,284.8623 Q126.376,285.8467 127.7041,285.8467 Q128.6885,285.8467 129.3916,285.2217 Q130.0947,284.5967 130.3916,283.2686 Z " fill="#000000"/><text fill="#000000" font-family="Verdana" font-size="14" lengthAdjust="spacing" textLength="147.7041" x="145.126" y="287.3052">ChatDetailViewModel</text><line style="stroke:#000000;stroke-width:1.0;" x1="42" x2="368.4561" y1="295.7373" y2="295.7373"/><text fill="#000000" font-family="Verdana" font-size="14" lengthAdjust="spacing" textLength="282.4473" x="47" y="313.8125">-repository: FirebaseMessageRepository</text><text fill="#000000" font-family="Verdana" font-size="14" lengthAdjust="spacing" textLength="316.4561" x="47" y="330.8271">+messages: LiveData&lt;List&lt;ChatMessage&gt;&gt;</text><line style="stroke:#000000;stroke-width:1.0;" x1="42" x2="368.4561" y1="337.7666" y2="337.7666"/><text fill="#000000" font-family="Verdana" font-size="14" lengthAdjust="spacing" textLength="199.0078" x="47" y="355.8418">+sendMessage(text: String)</text></g><!--class ForumViewModel--><g id="elem_ForumViewModel"><rect codeLine="127" fill="#FFFFFF" height="95.0439" id="ForumViewModel" rx="2.5" ry="2.5" style="stroke:#000000;stroke-width:1.0;" width="307.2783" x="418.5" y="267.7373"/><ellipse cx="508.6875" cy="281.7373" fill="#FFFFFF" rx="9" ry="9" style="stroke:#000000;stroke-width:1.0;"/><path d="M511.4531,283.2686 L513.8438,284.0186 Q513.2969,286.0029 512.0156,286.9717 Q510.75,287.9404 508.7813,287.9404 Q506.3594,287.9404 504.7969,286.2842 Q503.25,284.6279 503.25,281.7529 Q503.25,278.7217 504.8125,277.0498 Q506.375,275.3623 508.9375,275.3623 Q511.1719,275.3623 512.5625,276.6748 Q513.3906,277.4561 513.8125,278.9248 L511.375,279.5029 Q511.1563,278.5498 510.4688,278.0029 Q509.7969,277.4561 508.8125,277.4561 Q507.4531,277.4561 506.6094,278.4404 Q505.7813,279.4092 505.7813,281.5811 Q505.7813,283.8779 506.6094,284.8623 Q507.4375,285.8467 508.7656,285.8467 Q509.75,285.8467 510.4531,285.2217 Q511.1563,284.5967 511.4531,283.2686 Z " fill="#000000"/><text fill="#000000" font-family="Verdana" font-size="14" lengthAdjust="spacing" textLength="119.4033" x="526.1875" y="287.3052">ForumViewModel</text><line style="stroke:#000000;stroke-width:1.0;" x1="419.5" x2="724.7783" y1="295.7373" y2="295.7373"/><text fill="#000000" font-family="Verdana" font-size="14" lengthAdjust="spacing" textLength="267.2441" x="424.5" y="313.8125">-repository: FirebaseForumRepository</text><text fill="#000000" font-family="Verdana" font-size="14" lengthAdjust="spacing" textLength="266.458" x="424.5" y="330.8271">+posts: LiveData&lt;List&lt;ForumPost&gt;&gt;</text><line style="stroke:#000000;stroke-width:1.0;" x1="419.5" x2="724.7783" y1="337.7666" y2="337.7666"/><text fill="#000000" font-family="Verdana" font-size="14" lengthAdjust="spacing" textLength="295.2783" x="424.5" y="355.8418">+createPost(title: String, content: String)</text></g><!--class ShuttleViewModel--><g id="elem_ShuttleViewModel"><rect codeLine="133" fill="#FFFFFF" height="112.0586" id="ShuttleViewModel" rx="2.5" ry="2.5" style="stroke:#000000;stroke-width:1.0;" width="374.3525" x="27" y="94.7373"/><ellipse cx="147.9697" cy="108.7373" fill="#FFFFFF" rx="9" ry="9" style="stroke:#000000;stroke-width:1.0;"/><path d="M150.7354,110.2686 L153.126,111.0186 Q152.5791,113.0029 151.2979,113.9717 Q150.0322,114.9404 148.0635,114.9404 Q145.6416,114.9404 144.0791,113.2842 Q142.5322,111.6279 142.5322,108.7529 Q142.5322,105.7217 144.0947,104.0498 Q145.6572,102.3623 148.2197,102.3623 Q150.4541,102.3623 151.8447,103.6748 Q152.6729,104.4561 153.0947,105.9248 L150.6572,106.5029 Q150.4385,105.5498 149.751,105.0029 Q149.0791,104.4561 148.0947,104.4561 Q146.7354,104.4561 145.8916,105.4404 Q145.0635,106.4092 145.0635,108.5811 Q145.0635,110.8779 145.8916,111.8623 Q146.7197,112.8467 148.0479,112.8467 Q149.0322,112.8467 149.7354,112.2217 Q150.4385,111.5967 150.7354,110.2686 Z " fill="#000000"/><text fill="#000000" font-family="Verdana" font-size="14" lengthAdjust="spacing" textLength="124.9131" x="165.4697" y="114.3052">ShuttleViewModel</text><line style="stroke:#000000;stroke-width:1.0;" x1="28" x2="400.3525" y1="122.7373" y2="122.7373"/><text fill="#000000" font-family="Verdana" font-size="14" lengthAdjust="spacing" textLength="290.3223" x="33" y="140.8125">+routes: LiveData&lt;List&lt;ShuttleRoute&gt;&gt;</text><text fill="#000000" font-family="Verdana" font-size="14" lengthAdjust="spacing" textLength="287.6289" x="33" y="157.8271">+selectedDayType: LiveData&lt;DayType&gt;</text><line style="stroke:#000000;stroke-width:1.0;" x1="28" x2="400.3525" y1="164.7666" y2="164.7666"/><text fill="#000000" font-family="Verdana" font-size="14" lengthAdjust="spacing" textLength="238.9023" x="33" y="182.8418">+setDayType(dayType: DayType)</text><text fill="#000000" font-family="Verdana" font-size="14" lengthAdjust="spacing" textLength="362.3525" x="33" y="199.8564">+getScheduleForRoute(routeId: String): Schedule?</text></g><!--reverse link IMessageRepository to FirebaseMessageRepository--><g id="link_IMessageRepository_FirebaseMessageRepository"><path d="M1027.1716,593.6013 C1032.1116,617.7213 1034.51,629.4473 1039.45,653.5673 " fill="none" id="IMessageRepository-backto-FirebaseMessageRepository" style="stroke:#000000;stroke-width:1.0;stroke-dasharray:7.0,7.0;"/><polygon fill="none" points="1023.56,575.9673,1021.2936,594.8051,1033.0496,592.3974,1023.56,575.9673" style="stroke:#000000;stroke-width:1.0;"/></g><!--reverse link BaseViewModel to ChatDetailViewModel--><g id="link_BaseViewModel_ChatDetailViewModel"><path d="M437.1765,213.897 C391.3765,233.687 356.71,248.6773 312.73,267.6773 " fill="none" id="BaseViewModel-backto-ChatDetailViewModel" style="stroke:#000000;stroke-width:1.0;"/><polygon fill="none" points="453.7,206.7573,434.7966,208.3892,439.5565,219.4048,453.7,206.7573" style="stroke:#000000;stroke-width:1.0;"/></g><!--reverse link BaseViewModel to ForumViewModel--><g id="link_BaseViewModel_ForumViewModel"><path d="M576.9601,224.7301 C575.8701,244.5201 575.63,248.6773 574.58,267.6773 " fill="none" id="BaseViewModel-backto-ForumViewModel" style="stroke:#000000;stroke-width:1.0;"/><polygon fill="none" points="577.95,206.7573,570.9692,224.4001,582.951,225.06,577.95,206.7573" style="stroke:#000000;stroke-width:1.0;"/></g><!--link ChatDetailViewModel to FirebaseMessageRepository--><g id="link_ChatDetailViewModel_FirebaseMessageRepository"><path codeLine="141" d="M137.44,362.9273 C119.98,378.7473 103.46,397.9873 94,419.7373 C63.34,490.2473 42.76,535.4073 94,592.7373 C145.96,650.8773 625.2767,681.1428 883.3367,693.3928 " fill="none" id="ChatDetailViewModel-to-FirebaseMessageRepository" style="stroke:#000000;stroke-width:1.0;"/><polygon fill="#000000" points="889.33,693.6773,880.5298,689.2551,884.3356,693.4402,880.1505,697.2461,889.33,693.6773" style="stroke:#000000;stroke-width:1.0;"/><text fill="#000000" font-family="Verdana" font-size="13" lengthAdjust="spacing" textLength="29.5166" x="95" y="533.8071">uses</text></g><!--link ForumViewModel to FirebaseForumRepository--><g id="link_ForumViewModel_FirebaseForumRepository"><path codeLine="142" d="M725.63,320.2273 C881.75,328.1773 1128.74,351.5373 1331,419.7373 C1368.53,432.3873 1401.9373,449.5366 1434.4173,469.0566 " fill="none" id="ForumViewModel-to-FirebaseForumRepository" style="stroke:#000000;stroke-width:1.0;"/><polygon fill="#000000" points="1439.56,472.1473,1433.9064,464.0828,1435.2744,469.5717,1429.7855,470.9397,1439.56,472.1473" style="stroke:#000000;stroke-width:1.0;"/><text fill="#000000" font-family="Verdana" font-size="13" lengthAdjust="spacing" textLength="29.5166" x="1292" y="408.8071">uses</text></g><!--link FirebaseMessageRepository to Conversation--><g id="link_FirebaseMessageRepository_Conversation"><path codeLine="143" d="M1111.3,748.7473 C1132.65,765.7773 1156.14,785.7773 1176,805.7373 C1189.57,819.3773 1199.2646,829.8852 1212.1646,845.0652 " fill="none" id="FirebaseMessageRepository-to-Conversation" style="stroke:#000000;stroke-width:1.0;"/><polygon fill="#000000" points="1216.05,849.6373,1213.27,840.1889,1212.8122,845.8272,1207.1739,845.3694,1216.05,849.6373" style="stroke:#000000;stroke-width:1.0;"/><text fill="#000000" font-family="Verdana" font-size="13" lengthAdjust="spacing" textLength="59.103" x="1167" y="794.8071">manages</text></g><!--link FirebaseMessageRepository to ChatMessage--><g id="link_FirebaseMessageRepository_ChatMessage"><path codeLine="144" d="M1053.25,749.0273 C1056.44,784.2973 1060.368,827.5418 1064.138,869.1018 " fill="none" id="FirebaseMessageRepository-to-ChatMessage" style="stroke:#000000;stroke-width:1.0;"/><polygon fill="#000000" points="1064.68,875.0773,1067.8506,865.7527,1064.2283,870.0978,1059.8833,866.4755,1064.68,875.0773" style="stroke:#000000;stroke-width:1.0;"/><text fill="#000000" font-family="Verdana" font-size="13" lengthAdjust="spacing" textLength="59.103" x="1058" y="794.8071">manages</text></g><!--link FirebaseUserRepository to User--><g id="link_FirebaseUserRepository_User"><path codeLine="145" d="M1900.21,593.0873 C1868.6,660.8273 1820.6774,763.5502 1783.0674,844.1402 " fill="none" id="FirebaseUserRepository-to-User" style="stroke:#000000;stroke-width:1.0;"/><polygon fill="#000000" points="1780.53,849.5773,1787.9608,843.1133,1782.6445,845.0464,1780.7114,839.7301,1780.53,849.5773" style="stroke:#000000;stroke-width:1.0;"/><text fill="#000000" font-family="Verdana" font-size="13" lengthAdjust="spacing" textLength="59.103" x="1872" y="706.8071">manages</text></g><!--link FirebaseForumRepository to ForumPost--><g id="link_FirebaseForumRepository_ForumPost"><path codeLine="146" d="M1520.48,584.5573 C1519.85,651.3873 1518.8464,759.2876 1518.0564,843.3376 " fill="none" id="FirebaseForumRepository-to-ForumPost" style="stroke:#000000;stroke-width:1.0;"/><polygon fill="#000000" points="1518,849.3373,1522.0844,840.3753,1518.047,844.3375,1514.0848,840.3001,1518,849.3373" style="stroke:#000000;stroke-width:1.0;"/><text fill="#000000" font-family="Verdana" font-size="13" lengthAdjust="spacing" textLength="59.103" x="1520" y="706.8071">manages</text></g><!--SRC=[fLTHRziu37xFhz1jBowk0VPi51cwv3O4Q7T5iztheDfi8aIM38bEBtVOVp_AKMp9bflTbhUG54L-8Z_Il-4EAc2rv4BDx5wecXjUiK9oQsyHZNXg4DQ5LXln3x1tinaAbC3kZ-opHXHgkoFhELjg0spf3h6Lu5joCPlLlDZpBR0tzxe4QT-mVsUCVgrhzjM2yGBt-rsKETlGTMhRongoKRo2iUQvaV9pKWCL5t8iDbecZ6kZduM4TKLXVZNTiVUzXSMc18NhCg63gfRw291KFlEYaNXCQ4eWYB4Yhx7o-oo0PwdL0OpbABIw19Dp9mfHyp3Ef3eDMM1mU-38JI9e2WhlmLe2QkmWK7uHxeOx7JsZCi3BfMvSnck5GJRsaz5DdRCFcjw7gr3p89I2CgdwKqcX85R5wEtuEQ1Bu5bG9PZrf2ODMJK51LB-5dbL3q4Gzf50IAJZNNqvrh6xAA6FsZJLWxPuAHtUu4udqpbfqkcqFJqMKzTZKAQ1WYDijJacIa7imGvU-I3WPIWhTEKw85KKAGWZCFumXgloObSGMkc7dSYs15iOKRkE-pyP6tZXXcvPwUP9GiWS71kRy4JDW53UubHwcrs35E2Z9k8DapHEaCgdLQGVzjMSR0s5u99u718TVu2TAEIuBaz7YnsKZNHFVS_hcnK_Ehjhjl7oXK_hUp057e6UHA0s0hfP8AZ0354biBNlryxg6EQ-1GmPqNwK-YLpuw77uofdJdfp9opUXCQBHUJ7ttDoKGHsKwvwBWazENRmuWalrwnZYS07-Nu4IwFXnZF18j7jmi0Jjp26HD380TSuzdN0vYNnk7EHTyvMNjBRX64JEprJ3NiR-WC6L14OEx2NFtWWcOmR-3yVgsElNdzB_mBEqLkXicZmNxEQxdxH9dnJZxiBP17sxrOufcZBAM_taeatEbUGCtauRGvP8qPLq_jFuj1I-Ky3uUvtSy1cKP5syo4iqHFJE6dco33lfqYVu2dqHKpWtP5r0hxfibqhntduIxbjgAYfkZOjUMPdcXctPcGNX5zniwUrbPgJKpLczcGMDkLeetljjHibTR7tbwN3ISCI4jzVDF_Y5PW_MJIyG0_S1qAXCmf0U_jDQbxIDSIo3O4buKuSMjmIeNQcqpPllu4nseozUV8Fl7d3jCLerre1KlFrAS3VxWMc4vkRhaRoQRORxKWs2EX7kHafbkwr9XQhNmnyqD7n2ZAA-LAhHjl9DHliO5UJ-q8gtDDgC0eXt31Yt2GKj9luSHuSyvB85hqmAy_cNd0LTxHl6igxlJ0Rx37KGcUJzttpfAfgFb-yCXfpHWHkPuC73SyCcVTyOjAbEnnzYEMiuieLugL3mVV7-CnW4he3xTVms78OSPjDzodGs_y7]--></g></svg>