<svg xmlns="http://www.w3.org/2000/svg" xmlns:xlink="http://www.w3.org/1999/xlink" contentStyleType="text/css" height="361px" preserveAspectRatio="none" style="width:3229px;height:361px;background:#FFFFFF;" version="1.1" viewBox="0 0 3229 361" width="3229px" zoomAndPan="magnify"><title>My Nottingham - Firebase Realtime Database Structure</title><defs/><g><text fill="#000000" font-family="Verdana" font-size="22" font-weight="bold" lengthAdjust="spacing" textLength="683.2783" x="1268.3608" y="37.1182">My Nottingham - Firebase Realtime Database Structure</text><!--cluster users/{uid}--><g id="cluster_users/{uid}"><path d="M13.5,120.7373 L111.4473,120.7373 A3.75,3.75 0 0 1 113.9473,123.2373 L120.9473,143.752 L330.5,143.752 A2.5,2.5 0 0 1 333,146.252 L333,352.2373 A2.5,2.5 0 0 1 330.5,354.7373 L13.5,354.7373 A2.5,2.5 0 0 1 11,352.2373 L11,123.2373 A2.5,2.5 0 0 1 13.5,120.7373 " fill="#FFFFFF" style="stroke:#000000;stroke-width:1.0;"/><line style="stroke:#000000;stroke-width:1.0;" x1="11" x2="120.9473" y1="143.752" y2="143.752"/><text fill="#000000" font-family="Verdana" font-size="14" font-weight="bold" lengthAdjust="spacing" textLength="96.9473" x="15" y="136.8125">users/{uid}</text></g><!--cluster user_conversations/{userId}/{conversationId}--><g id="cluster_user_conversations/{userId}/{conversationId}"><path d="M359.5,129.2373 L744.9736,129.2373 A3.75,3.75 0 0 1 747.4736,131.7373 L754.4736,152.252 L754.5,152.252 A2.5,2.5 0 0 1 757,154.752 L757,343.7373 A2.5,2.5 0 0 1 754.5,346.2373 L359.5,346.2373 A2.5,2.5 0 0 1 357,343.7373 L357,131.7373 A2.5,2.5 0 0 1 359.5,129.2373 " fill="#FFFFFF" style="stroke:#000000;stroke-width:1.0;"/><line style="stroke:#000000;stroke-width:1.0;" x1="357" x2="754.4736" y1="152.252" y2="152.252"/><text fill="#000000" font-family="Verdana" font-size="14" font-weight="bold" lengthAdjust="spacing" textLength="384.4736" x="361" y="145.3125">user_conversations/{userId}/{conversationId}</text></g><!--cluster conversations/{conversationId}--><g id="cluster_conversations/{conversationId}"><path d="M783.5,146.2373 L1042.96,146.2373 A3.75,3.75 0 0 1 1045.46,148.7373 L1052.46,169.252 L1267.5,169.252 A2.5,2.5 0 0 1 1270,171.752 L1270,326.7373 A2.5,2.5 0 0 1 1267.5,329.2373 L783.5,329.2373 A2.5,2.5 0 0 1 781,326.7373 L781,148.7373 A2.5,2.5 0 0 1 783.5,146.2373 " fill="#FFFFFF" style="stroke:#000000;stroke-width:1.0;"/><line style="stroke:#000000;stroke-width:1.0;" x1="781" x2="1052.46" y1="169.252" y2="169.252"/><text fill="#000000" font-family="Verdana" font-size="14" font-weight="bold" lengthAdjust="spacing" textLength="258.46" x="785" y="162.3125">conversations/{conversationId}</text></g><!--cluster forum_posts/{postId}--><g id="cluster_forum_posts/{postId}"><path d="M1296.5,120.7373 L1478.1875,120.7373 A3.75,3.75 0 0 1 1480.6875,123.2373 L1487.6875,143.752 L1537.5,143.752 A2.5,2.5 0 0 1 1540,146.252 L1540,352.2373 A2.5,2.5 0 0 1 1537.5,354.7373 L1296.5,354.7373 A2.5,2.5 0 0 1 1294,352.2373 L1294,123.2373 A2.5,2.5 0 0 1 1296.5,120.7373 " fill="#FFFFFF" style="stroke:#000000;stroke-width:1.0;"/><line style="stroke:#000000;stroke-width:1.0;" x1="1294" x2="1487.6875" y1="143.752" y2="143.752"/><text fill="#000000" font-family="Verdana" font-size="14" font-weight="bold" lengthAdjust="spacing" textLength="180.6875" x="1298" y="136.8125">forum_posts/{postId}</text></g><!--cluster forum_comments/{postId}/{commentId}--><g id="cluster_forum_comments/{postId}/{commentId}"><path d="M1566.5,154.7373 L1907.3418,154.7373 A3.75,3.75 0 0 1 1909.8418,157.2373 L1916.8418,177.752 L1916.5,177.752 A2.5,2.5 0 0 1 1919,180.252 L1919,318.2373 A2.5,2.5 0 0 1 1916.5,320.7373 L1566.5,320.7373 A2.5,2.5 0 0 1 1564,318.2373 L1564,157.2373 A2.5,2.5 0 0 1 1566.5,154.7373 " fill="#FFFFFF" style="stroke:#000000;stroke-width:1.0;"/><line style="stroke:#000000;stroke-width:1.0;" x1="1564" x2="1916.8418" y1="177.752" y2="177.752"/><text fill="#000000" font-family="Verdana" font-size="14" font-weight="bold" lengthAdjust="spacing" textLength="339.8418" x="1568" y="170.8125">forum_comments/{postId}/{commentId}</text></g><!--cluster enrollments/{courseId}/{studentUid}--><g id="cluster_enrollments/{courseId}/{studentUid}"><path d="M1945.5,180.2373 L2255.6484,180.2373 A3.75,3.75 0 0 1 2258.1484,182.7373 L2265.1484,203.252 L2265.5,203.252 A2.5,2.5 0 0 1 2268,205.752 L2268,292.7373 A2.5,2.5 0 0 1 2265.5,295.2373 L1945.5,295.2373 A2.5,2.5 0 0 1 1943,292.7373 L1943,182.7373 A2.5,2.5 0 0 1 1945.5,180.2373 " fill="#FFFFFF" style="stroke:#000000;stroke-width:1.0;"/><line style="stroke:#000000;stroke-width:1.0;" x1="1943" x2="2265.1484" y1="203.252" y2="203.252"/><text fill="#000000" font-family="Verdana" font-size="14" font-weight="bold" lengthAdjust="spacing" textLength="309.1484" x="1947" y="196.3125">enrollments/{courseId}/{studentUid}</text></g><!--cluster sessions/{scheduleId}_{date}--><g id="cluster_sessions/{scheduleId}_{date}"><path d="M2294.5,154.7373 L2543.7129,154.7373 A3.75,3.75 0 0 1 2546.2129,157.2373 L2553.2129,177.752 L2689.5,177.752 A2.5,2.5 0 0 1 2692,180.252 L2692,318.2373 A2.5,2.5 0 0 1 2689.5,320.7373 L2294.5,320.7373 A2.5,2.5 0 0 1 2292,318.2373 L2292,157.2373 A2.5,2.5 0 0 1 2294.5,154.7373 " fill="#FFFFFF" style="stroke:#000000;stroke-width:1.0;"/><line style="stroke:#000000;stroke-width:1.0;" x1="2292" x2="2553.2129" y1="177.752" y2="177.752"/><text fill="#000000" font-family="Verdana" font-size="14" font-weight="bold" lengthAdjust="spacing" textLength="248.2129" x="2296" y="170.8125">sessions/{scheduleId}_{date}</text></g><!--cluster errands/{errandId}--><g id="cluster_errands/{errandId}"><path d="M2718.5,129.2373 L2879.4541,129.2373 A3.75,3.75 0 0 1 2881.9541,131.7373 L2888.9541,152.252 L2963.5,152.252 A2.5,2.5 0 0 1 2966,154.752 L2966,343.7373 A2.5,2.5 0 0 1 2963.5,346.2373 L2718.5,346.2373 A2.5,2.5 0 0 1 2716,343.7373 L2716,131.7373 A2.5,2.5 0 0 1 2718.5,129.2373 " fill="#FFFFFF" style="stroke:#000000;stroke-width:1.0;"/><line style="stroke:#000000;stroke-width:1.0;" x1="2716" x2="2888.9541" y1="152.252" y2="152.252"/><text fill="#000000" font-family="Verdana" font-size="14" font-weight="bold" lengthAdjust="spacing" textLength="159.9541" x="2720" y="145.3125">errands/{errandId}</text></g><!--cluster presence/{userId}--><g id="cluster_presence/{userId}"><path d="M2992.5,180.2373 L3146.1807,180.2373 A3.75,3.75 0 0 1 3148.6807,182.7373 L3155.6807,203.252 L3219.5,203.252 A2.5,2.5 0 0 1 3222,205.752 L3222,292.7373 A2.5,2.5 0 0 1 3219.5,295.2373 L2992.5,295.2373 A2.5,2.5 0 0 1 2990,292.7373 L2990,182.7373 A2.5,2.5 0 0 1 2992.5,180.2373 " fill="#FFFFFF" style="stroke:#000000;stroke-width:1.0;"/><line style="stroke:#000000;stroke-width:1.0;" x1="2990" x2="3155.6807" y1="203.252" y2="203.252"/><text fill="#000000" font-family="Verdana" font-size="14" font-weight="bold" lengthAdjust="spacing" textLength="152.6807" x="2994" y="196.3125">presence/{userId}</text></g><g id="elem_user"><rect fill="#FFFFFF" height="182.1465" style="stroke:#666666;stroke-width:1.0;" width="288.8965" x="27.5" y="156.7373"/><text fill="#000000" font-family="Verdana" font-size="14" lengthAdjust="spacing" textLength="80.6367" x="131.6299" y="172.8125">User Profile</text><line style="stroke:#666666;stroke-width:1.0;" x1="28.5" x2="315.3965" y1="177.752" y2="177.752"/><text fill="#000000" font-family="Verdana" font-size="14" lengthAdjust="spacing" textLength="155.832" x="33.5" y="195.8271">username: "student1"</text><text fill="#000000" font-family="Verdana" font-size="14" lengthAdjust="spacing" textLength="151.5596" x="33.5" y="212.8418">fullName: "John Doe"</text><text fill="#000000" font-family="Verdana" font-size="14" lengthAdjust="spacing" textLength="276.8965" x="33.5" y="229.8564">email: "student1@nottingham.edu.my"</text><text fill="#000000" font-family="Verdana" font-size="14" lengthAdjust="spacing" textLength="117.9678" x="33.5" y="246.8711">role: "STUDENT"</text><text fill="#000000" font-family="Verdana" font-size="14" lengthAdjust="spacing" textLength="156.0166" x="33.5" y="263.8857">profileImageUrl: "tx1"</text><text fill="#000000" font-family="Verdana" font-size="14" lengthAdjust="spacing" textLength="163.0576" x="33.5" y="280.9004">studentId: "20012345"</text><text fill="#000000" font-family="Verdana" font-size="14" lengthAdjust="spacing" textLength="199.0215" x="33.5" y="297.915">faculty: "Computer Science"</text><text fill="#000000" font-family="Verdana" font-size="14" lengthAdjust="spacing" textLength="120.9346" x="33.5" y="314.9297">yearOfStudy: "3"</text><text fill="#000000" font-family="Verdana" font-size="14" lengthAdjust="spacing" textLength="107.8506" x="33.5" y="331.9443">fcmToken: "..."</text></g><g id="elem_userConv"><rect fill="#FFFFFF" height="165.1318" style="stroke:#666666;stroke-width:1.0;" width="258.668" x="481.5" y="165.2373"/><text fill="#000000" font-family="Verdana" font-size="14" lengthAdjust="spacing" textLength="131.1338" x="545.2671" y="181.3125">Conversation Meta</text><line style="stroke:#666666;stroke-width:1.0;" x1="482.5" x2="739.168" y1="186.252" y2="186.252"/><text fill="#000000" font-family="Verdana" font-size="14" lengthAdjust="spacing" textLength="183.5449" x="487.5" y="204.3271">participantId: "uid_user2"</text><text fill="#000000" font-family="Verdana" font-size="14" lengthAdjust="spacing" textLength="218.374" x="487.5" y="221.3418">participantName: "Jane Smith"</text><text fill="#000000" font-family="Verdana" font-size="14" lengthAdjust="spacing" textLength="168.1025" x="487.5" y="238.3564">participantAvatar: "tx2"</text><text fill="#000000" font-family="Verdana" font-size="14" lengthAdjust="spacing" textLength="149.9395" x="487.5" y="255.3711">lastMessage: "Hello!"</text><text fill="#000000" font-family="Verdana" font-size="14" lengthAdjust="spacing" textLength="246.668" x="487.5" y="272.3857">lastMessageTime: 1701234567890</text><text fill="#000000" font-family="Verdana" font-size="14" lengthAdjust="spacing" textLength="110.8516" x="487.5" y="289.4004">unreadCount: 2</text><text fill="#000000" font-family="Verdana" font-size="14" lengthAdjust="spacing" textLength="98.1299" x="487.5" y="306.415">isGroup: false</text><text fill="#000000" font-family="Verdana" font-size="14" lengthAdjust="spacing" textLength="98.1709" x="487.5" y="323.4297">isPinned: true</text></g><g id="elem_convMeta"><rect fill="#FFFFFF" height="97.0732" style="stroke:#666666;stroke-width:1.0;" width="206.667" x="1046.5" y="199.2373"/><text fill="#000000" font-family="Verdana" font-size="14" lengthAdjust="spacing" textLength="66.9375" x="1116.3647" y="215.3125">metadata</text><line style="stroke:#666666;stroke-width:1.0;" x1="1047.5" x2="1252.167" y1="220.252" y2="220.252"/><text fill="#000000" font-family="Verdana" font-size="14" lengthAdjust="spacing" textLength="98.1299" x="1052.5" y="238.3271">isGroup: false</text><text fill="#000000" font-family="Verdana" font-size="14" lengthAdjust="spacing" textLength="194.667" x="1052.5" y="255.3418">createdAt: 1700000000000</text><text fill="#000000" font-family="Verdana" font-size="14" lengthAdjust="spacing" textLength="176.8252" x="1052.5" y="272.3564">participants/{uid1}: true</text><text fill="#000000" font-family="Verdana" font-size="14" lengthAdjust="spacing" textLength="176.8252" x="1052.5" y="289.3711">participants/{uid2}: true</text></g><g id="elem_msg"><rect fill="#FFFFFF" height="131.1025" style="stroke:#666666;stroke-width:1.0;" width="213.8584" x="797" y="182.2373"/><text fill="#000000" font-family="Verdana" font-size="14" lengthAdjust="spacing" textLength="170.0713" x="818.8936" y="198.3125">messages/{messageId}</text><line style="stroke:#666666;stroke-width:1.0;" x1="798" x2="1009.8584" y1="203.252" y2="203.252"/><text fill="#000000" font-family="Verdana" font-size="14" lengthAdjust="spacing" textLength="116.6006" x="803" y="221.3271">senderId: "uid1"</text><text fill="#000000" font-family="Verdana" font-size="14" lengthAdjust="spacing" textLength="177.625" x="803" y="238.3418">senderName: "John Doe"</text><text fill="#000000" font-family="Verdana" font-size="14" lengthAdjust="spacing" textLength="126.6973" x="803" y="255.3564">message: "Hello!"</text><text fill="#000000" font-family="Verdana" font-size="14" lengthAdjust="spacing" textLength="201.8584" x="803" y="272.3711">timestamp: 1701234567890</text><text fill="#000000" font-family="Verdana" font-size="14" lengthAdjust="spacing" textLength="90.4258" x="803" y="289.3857">isRead: false</text><text fill="#000000" font-family="Verdana" font-size="14" lengthAdjust="spacing" textLength="155.8184" x="803" y="306.4004">messageType: "TEXT"</text></g><g id="elem_post"><rect fill="#FFFFFF" height="182.1465" style="stroke:#666666;stroke-width:1.0;" width="213.8584" x="1310" y="156.7373"/><text fill="#000000" font-family="Verdana" font-size="14" lengthAdjust="spacing" textLength="79.666" x="1377.0962" y="172.8125">Forum Post</text><line style="stroke:#666666;stroke-width:1.0;" x1="1311" x2="1522.8584" y1="177.752" y2="177.752"/><text fill="#000000" font-family="Verdana" font-size="14" lengthAdjust="spacing" textLength="115.1855" x="1316" y="195.8271">authorId: "uid1"</text><text fill="#000000" font-family="Verdana" font-size="14" lengthAdjust="spacing" textLength="176.21" x="1316" y="212.8418">authorName: "John Doe"</text><text fill="#000000" font-family="Verdana" font-size="14" lengthAdjust="spacing" textLength="139.9727" x="1316" y="229.8564">title: "Study Group"</text><text fill="#000000" font-family="Verdana" font-size="14" lengthAdjust="spacing" textLength="171.1035" x="1316" y="246.8711">content: "Looking for..."</text><text fill="#000000" font-family="Verdana" font-size="14" lengthAdjust="spacing" textLength="152.2568" x="1316" y="263.8857">category: "Academic"</text><text fill="#000000" font-family="Verdana" font-size="14" lengthAdjust="spacing" textLength="51.7822" x="1316" y="280.9004">likes: 5</text><text fill="#000000" font-family="Verdana" font-size="14" lengthAdjust="spacing" textLength="68.2979" x="1316" y="297.915">views: 23</text><text fill="#000000" font-family="Verdana" font-size="14" lengthAdjust="spacing" textLength="127.4287" x="1316" y="314.9297">commentCount: 3</text><text fill="#000000" font-family="Verdana" font-size="14" lengthAdjust="spacing" textLength="201.8584" x="1316" y="331.9443">timestamp: 1701234567890</text></g><g id="elem_comment"><rect fill="#FFFFFF" height="114.0879" style="stroke:#666666;stroke-width:1.0;" width="206.667" x="1637.5" y="190.7373"/><text fill="#000000" font-family="Verdana" font-size="14" lengthAdjust="spacing" textLength="68.2227" x="1706.7222" y="206.8125">Comment</text><line style="stroke:#666666;stroke-width:1.0;" x1="1638.5" x2="1843.167" y1="211.752" y2="211.752"/><text fill="#000000" font-family="Verdana" font-size="14" lengthAdjust="spacing" textLength="115.1855" x="1643.5" y="229.8271">authorId: "uid2"</text><text fill="#000000" font-family="Verdana" font-size="14" lengthAdjust="spacing" textLength="189.3828" x="1643.5" y="246.8418">authorName: "Jane Smith"</text><text fill="#000000" font-family="Verdana" font-size="14" lengthAdjust="spacing" textLength="181.46" x="1643.5" y="263.8564">content: "I'm interested!"</text><text fill="#000000" font-family="Verdana" font-size="14" lengthAdjust="spacing" textLength="51.7822" x="1643.5" y="280.8711">likes: 1</text><text fill="#000000" font-family="Verdana" font-size="14" lengthAdjust="spacing" textLength="194.667" x="1643.5" y="297.8857">createdAt: 1701234567890</text></g><g id="elem_enrollment"><rect fill="#FFFFFF" height="63.0439" style="stroke:#666666;stroke-width:1.0;" width="210.4883" x="1959" y="216.2373"/><text fill="#000000" font-family="Verdana" font-size="14" lengthAdjust="spacing" textLength="76.2002" x="2026.144" y="232.3125">Enrollment</text><line style="stroke:#666666;stroke-width:1.0;" x1="1960" x2="2168.4883" y1="237.252" y2="237.252"/><text fill="#000000" font-family="Verdana" font-size="14" lengthAdjust="spacing" textLength="96.3867" x="1965" y="255.3271">enrolled: true</text><text fill="#000000" font-family="Verdana" font-size="14" lengthAdjust="spacing" textLength="198.4883" x="1965" y="272.3418">enrolledAt: 1700000000000</text></g><g id="elem_session"><rect fill="#FFFFFF" height="114.0879" style="stroke:#666666;stroke-width:1.0;" width="366.6621" x="2308.5" y="190.7373"/><text fill="#000000" font-family="Verdana" font-size="14" lengthAdjust="spacing" textLength="138.0449" x="2422.8086" y="206.8125">Attendance Session</text><line style="stroke:#666666;stroke-width:1.0;" x1="2309.5" x2="2674.1621" y1="211.752" y2="211.752"/><text fill="#000000" font-family="Verdana" font-size="14" lengthAdjust="spacing" textLength="104.1523" x="2314.5" y="229.8271">isLocked: false</text><text fill="#000000" font-family="Verdana" font-size="14" lengthAdjust="spacing" textLength="187.7695" x="2314.5" y="246.8418">unlockedBy: "teacher_uid"</text><text fill="#000000" font-family="Verdana" font-size="14" lengthAdjust="spacing" textLength="204.7705" x="2314.5" y="263.8564">unlockedAt: 1701234567890</text><text fill="#000000" font-family="Verdana" font-size="14" lengthAdjust="spacing" textLength="298.3818" x="2314.5" y="280.8711">students/{studentUid}/status: "PRESENT"</text><text fill="#000000" font-family="Verdana" font-size="14" lengthAdjust="spacing" textLength="354.6621" x="2314.5" y="297.8857">students/{studentUid}/signedAt: 1701234567890</text></g><g id="elem_errand"><rect fill="#FFFFFF" height="165.1318" style="stroke:#666666;stroke-width:1.0;" width="217.0371" x="2732.5" y="165.2373"/><text fill="#000000" font-family="Verdana" font-size="14" lengthAdjust="spacing" textLength="46.792" x="2817.6226" y="181.3125">Errand</text><line style="stroke:#666666;stroke-width:1.0;" x1="2733.5" x2="2948.5371" y1="186.252" y2="186.252"/><text fill="#000000" font-family="Verdana" font-size="14" lengthAdjust="spacing" textLength="113.415" x="2738.5" y="204.3271">posterId: "uid1"</text><text fill="#000000" font-family="Verdana" font-size="14" lengthAdjust="spacing" textLength="174.4395" x="2738.5" y="221.3418">posterName: "John Doe"</text><text fill="#000000" font-family="Verdana" font-size="14" lengthAdjust="spacing" textLength="147.5674" x="2738.5" y="238.3564">title: "Food Delivery"</text><text fill="#000000" font-family="Verdana" font-size="14" lengthAdjust="spacing" textLength="116.3135" x="2738.5" y="255.3711">description: "..."</text><text fill="#000000" font-family="Verdana" font-size="14" lengthAdjust="spacing" textLength="205.0371" x="2738.5" y="272.3857">category: "FOOD_DELIVERY"</text><text fill="#000000" font-family="Verdana" font-size="14" lengthAdjust="spacing" textLength="91.9502" x="2738.5" y="289.4004">reward: 5.00</text><text fill="#000000" font-family="Verdana" font-size="14" lengthAdjust="spacing" textLength="105.8066" x="2738.5" y="306.415">status: "OPEN"</text><text fill="#000000" font-family="Verdana" font-size="14" lengthAdjust="spacing" textLength="194.667" x="2738.5" y="323.4297">createdAt: 1701234567890</text></g><g id="elem_presence"><rect fill="#FFFFFF" height="63.0439" style="stroke:#666666;stroke-width:1.0;" width="199.1543" x="3006.5" y="216.2373"/><text fill="#000000" font-family="Verdana" font-size="14" lengthAdjust="spacing" textLength="62.8838" x="3074.6353" y="232.3125">Presence</text><line style="stroke:#666666;stroke-width:1.0;" x1="3007.5" x2="3204.6543" y1="237.252" y2="237.252"/><text fill="#000000" font-family="Verdana" font-size="14" lengthAdjust="spacing" textLength="82.209" x="3012.5" y="255.3271">online: true</text><text fill="#000000" font-family="Verdana" font-size="14" lengthAdjust="spacing" textLength="187.1543" x="3012.5" y="272.3418">lastSeen: 1701234567890</text></g><g id="elem_root"><rect fill="#FFFFFF" height="37.0146" style="stroke:#666666;stroke-width:1.0;" width="210.335" x="1636" y="59.7373"/><text fill="#000000" font-family="Verdana" font-size="14" lengthAdjust="spacing" textLength="196.335" x="1643" y="75.8125">Firebase Realtime Database</text><line style="stroke:#666666;stroke-width:1.0;" x1="1637" x2="1845.335" y1="80.752" y2="80.752"/></g><!--link root to user--><g id="link_root_user"><path codeLine="115" d="M1635.86,79.5873 C1350.85,80.8573 577.36,86.7173 465,112.7373 C414.73,124.3773 368.0696,142.474 322.0096,164.134 " fill="none" id="root-to-user" style="stroke:#000000;stroke-width:1.0;"/><polygon fill="#000000" points="316.58,166.6873,326.4266,166.4771,321.1047,164.5595,323.0222,159.2376,316.58,166.6873" style="stroke:#000000;stroke-width:1.0;"/></g><!--link root to userConv--><g id="link_root_userConv"><path codeLine="116" d="M1635.83,79.2273 C1403.22,79.7273 859.44,83.9973 781,112.7373 C749.42,124.3073 723.8143,140.4056 697.7943,161.3456 " fill="none" id="root-to-userConv" style="stroke:#000000;stroke-width:1.0;"/><polygon fill="#000000" points="693.12,165.1073,702.6393,162.5809,697.0153,161.9725,697.6237,156.3485,693.12,165.1073" style="stroke:#000000;stroke-width:1.0;"/></g><!--link root to convMeta--><g id="link_root_convMeta"><path codeLine="117" d="M1635.79,79.1573 C1523.31,80.4673 1353.14,86.8873 1294,112.7373 C1251.13,131.4773 1216.8339,163.9982 1190.5539,194.3982 " fill="none" id="root-to-convMeta" style="stroke:#000000;stroke-width:1.0;"/><polygon fill="#000000" points="1186.63,198.9373,1195.5419,194.7446,1189.8999,195.1548,1189.4898,189.5128,1186.63,198.9373" style="stroke:#000000;stroke-width:1.0;"/></g><!--link root to post--><g id="link_root_post"><path codeLine="118" d="M1664.52,96.7673 C1649.78,101.2073 1634.68,106.5173 1621,112.7373 C1588.02,127.7273 1559.3239,144.3617 1529.0639,164.2517 " fill="none" id="root-to-post" style="stroke:#000000;stroke-width:1.0;"/><polygon fill="#000000" points="1524.05,167.5473,1533.7679,165.9464,1528.2282,164.8009,1529.3737,159.2613,1524.05,167.5473" style="stroke:#000000;stroke-width:1.0;"/></g><!--link root to comment--><g id="link_root_comment"><path codeLine="119" d="M1741,96.8473 C1741,118.9373 1741,151.8873 1741,184.5373 " fill="none" id="root-to-comment" style="stroke:#000000;stroke-width:1.0;"/><polygon fill="#000000" points="1741,190.5373,1745,181.5373,1741,185.5373,1737,181.5373,1741,190.5373" style="stroke:#000000;stroke-width:1.0;"/></g><!--link root to enrollment--><g id="link_root_enrollment"><path codeLine="120" d="M1817.49,96.7373 C1832.23,101.1773 1847.32,106.4973 1861,112.7373 C1922.48,140.7673 1981.6343,182.4621 2020.9343,212.5221 " fill="none" id="root-to-enrollment" style="stroke:#000000;stroke-width:1.0;"/><polygon fill="#000000" points="2025.7,216.1673,2020.9816,207.5223,2021.7286,213.1296,2016.1212,213.8766,2025.7,216.1673" style="stroke:#000000;stroke-width:1.0;"/></g><!--link root to session--><g id="link_root_session"><path codeLine="121" d="M1846.21,83.1073 C1956.8,87.9073 2123.15,97.3773 2185,112.7373 C2255.13,130.1573 2324.1121,159.5872 2382.0921,187.9972 " fill="none" id="root-to-session" style="stroke:#000000;stroke-width:1.0;"/><polygon fill="#000000" points="2387.48,190.6373,2381.1581,183.0852,2382.99,188.4372,2377.638,190.2692,2387.48,190.6373" style="stroke:#000000;stroke-width:1.0;"/></g><!--link root to errand--><g id="link_root_errand"><path codeLine="122" d="M1846.18,78.9073 C2077.37,78.7573 2615.36,81.7873 2692,112.7373 C2720.87,124.3973 2743.3526,140.2269 2766.1226,161.1569 " fill="none" id="root-to-errand" style="stroke:#000000;stroke-width:1.0;"/><polygon fill="#000000" points="2770.54,165.2173,2766.6209,156.1818,2766.8589,161.8336,2761.207,162.0716,2770.54,165.2173" style="stroke:#000000;stroke-width:1.0;"/></g><!--link root to presence--><g id="link_root_presence"><path codeLine="123" d="M1846.07,80.0573 C2133.49,82.5773 2914.8,91.3673 2966,112.7373 C3017.23,134.1173 3056.9809,178.8066 3081.3309,211.2866 " fill="none" id="root-to-presence" style="stroke:#000000;stroke-width:1.0;"/><polygon fill="#000000" points="3084.93,216.0873,3082.7319,206.4869,3081.9308,212.0867,3076.3309,211.2856,3084.93,216.0873" style="stroke:#000000;stroke-width:1.0;"/></g><!--SRC=[dLPBSzis4BxpLy3i8IVBbXmxhG-TEfQSAEE7nf8xxKc346i95HuS07IYyUY_Tm7I8YI1JQQyaDnTB7Q__NQ18xS42QGKbAlChhWggQ6IwA__GE4-QiF0N6kX3Vdb8ZnPvhWJGExMv5uxnzLYYUR7v8OR-4eja4UWmd5qEQIE1idKcQfmbO4igzsIlDiw9zGIexKZhzacoqfQhEW2I5vPCFRajU9iawEAuFFcx0bLP6BqCnVrSc_RsFZ7_oeguPBarbKCbEldM-Lp9SHzhVoYbueCDRHAa9IBQDaVQfjo3rZLa-lMrcZXdKndJyFH_QoLbtLWOubfF1dlpNsFzczSZnag1gUd_S7P-_CeEbfKmgrHTwrbMJdCQrfmK4KKv1geUNYUeXzlTnOjBkHChq2XjDVhrVBD0QZpGgiNn9OwhfL766LZjZbvZUNZGzIl8pMv0qUtq7jD13yIol62bxJ94aiuzsQ3F6NoLWkga3YIksNIwke5wM82bf4RGQsx0sinDrHz1Y7qKL8xutwJ_eSQxeiFl_vssh956Q3iMbVANPB1Lipj9wEhyX9B8Yn4uWbN2Z0l93aa8Dv3zmUWIiIHqGPBR-k1ZR3iYAB0a1smAnUIQfyKT7KJzJTHn4cBmMOdfxqm0unes7o5L31aQHTHj1OKysIgYnwJFYWwsqvsrj2F2kkeBBkgnorE5BQFJ-DmjYwzqzdehrcg6vwrgUIyrDOZu5-90jru6p91PSZNMqK9qyejTIhXMj6PS1YfVdZu9YQXnAqIQU30ap6_rHe7z89WeDk63XPO_8Ksllsl2if0yYAYFL-1lIJdMy4BXsye69n5EqY9EpISF_ivj5FODOvQ-3pXWoWvG8AceNhuxeHoq0LbOaoqU8tVISBnns0Mm8uECEbtDD1_PWeA9xreqYnqPIo4H9j1_fGue4RR9I7PraEKRotS6IInEDtQkv5PP7azPMonnED9-C3chpXFu22aAuSOCOe72PdMoq9eZOkTYNEhYnKSj5IbH91_zAnpG757CyTAvGSMQL2Ziy_kW7U2Z7CLLYUVF8wcEqTfXprVg9yidJ5KCLnUVoGuEGgAkahXCpx7aDB9QLOhVjZSDrepCWJ1yG28xWqCR65uwG-4-A3Uw-kRXuVXV3Yw7VyvUlmxkdJ0DsemelFUQGnh0-33P7IV_n-EbzWn_fAnlGtiupHf3EeXsFn4M6abk88zBli3U0h-FjAnVxZs7H__7cuHkt_-Jj5Atax6Lk9h4El3E6a5RSkrieRhaL6eUEIpoIlx5m00]--></g></svg>