<svg xmlns="http://www.w3.org/2000/svg" xmlns:xlink="http://www.w3.org/1999/xlink" contentStyleType="text/css" height="1137px" preserveAspectRatio="none" style="width:1439px;height:1137px;background:#FFFFFF;" version="1.1" viewBox="0 0 1439 1137" width="1439px" zoomAndPan="magnify"><title>My Nottingham - Real-time Messaging Sequence Diagram</title><defs/><g><text fill="#000000" font-family="Verdana" font-size="22" font-weight="bold" lengthAdjust="spacing" textLength="710.9824" x="362.5486" y="37.1182">My Nottingham - Real-time Messaging Sequence Diagram</text><rect fill="#FFFFFF" height="184.7959" style="stroke:#000000;stroke-width:1.0;" width="10" x="450.103" y="236.1499"/><rect fill="#FFFFFF" height="238.3945" style="stroke:#000000;stroke-width:1.0;" width="10" x="450.103" y="531.3438"/><rect fill="#FFFFFF" height="89.3979" style="stroke:#000000;stroke-width:1.0;" width="10" x="741.3691" y="265.9492"/><rect fill="#FFFFFF" height="208.5952" style="stroke:#000000;stroke-width:1.0;" width="10" x="741.3691" y="561.1431"/><rect fill="#FFFFFF" height="59.5986" style="stroke:#000000;stroke-width:1.0;" width="10" x="741.3691" y="843.3369"/><rect fill="#FFFFFF" height="750.9829" style="stroke:#000000;stroke-width:1.0;" width="10" x="1137.689" y="295.7485"/><rect fill="#FFFFFF" height="29.7993" style="stroke:#000000;stroke-width:1.0;" width="10" x="1142.689" y="590.9424"/><rect fill="#FFFFFF" height="29.7993" style="stroke:#000000;stroke-width:1.0;" width="10" x="1258.9248" y="710.1396"/><line style="stroke:#000000;stroke-width:1.0;" x1="36" x2="36" y1="130.752" y2="1055.7314"/><line style="stroke:#000000;stroke-width:1.0;" x1="217.606" x2="217.606" y1="130.752" y2="1055.7314"/><line style="stroke:#000000;stroke-width:1.0;" x1="454.251" x2="454.251" y1="130.752" y2="1055.7314"/><line style="stroke:#000000;stroke-width:1.0;" x1="745.4355" x2="745.4355" y1="130.752" y2="1055.7314"/><line style="stroke:#000000;stroke-width:1.0;" x1="1142.2632" x2="1142.2632" y1="130.752" y2="1055.7314"/><line style="stroke:#000000;stroke-width:1.0;" x1="1263.1147" x2="1263.1147" y1="130.752" y2="1055.7314"/><line style="stroke:#000000;stroke-width:1.0;" x1="1400.7046" x2="1400.7046" y1="130.752" y2="1055.7314"/><text fill="#000000" font-family="Verdana" font-size="14" lengthAdjust="spacing" textLength="46.3477" x="10" y="127.8125">User A</text><ellipse cx="36.1738" cy="61.7373" fill="#FFFFFF" rx="8" ry="8" style="stroke:#000000;stroke-width:1.0;"/><path d="M36.1738,69.7373 L36.1738,96.7373 M23.1738,77.7373 L49.1738,77.7373 M36.1738,96.7373 L23.1738,111.7373 M36.1738,96.7373 L49.1738,111.7373 " fill="none" style="stroke:#000000;stroke-width:1.0;"/><text fill="#000000" font-family="Verdana" font-size="14" lengthAdjust="spacing" textLength="46.3477" x="10" y="1068.8066">User A</text><ellipse cx="36.1738" cy="1080.7461" fill="#FFFFFF" rx="8" ry="8" style="stroke:#000000;stroke-width:1.0;"/><path d="M36.1738,1088.7461 L36.1738,1115.7461 M23.1738,1096.7461 L49.1738,1096.7461 M36.1738,1115.7461 L23.1738,1130.7461 M36.1738,1115.7461 L49.1738,1130.7461 " fill="none" style="stroke:#000000;stroke-width:1.0;"/><rect fill="#FFFFFF" height="31.0146" rx="2.5" ry="2.5" style="stroke:#000000;stroke-width:1.0;" width="154.7793" x="140.606" y="98.7373"/><text fill="#000000" font-family="Verdana" font-size="14" lengthAdjust="spacing" textLength="140.7793" x="147.606" y="119.8125">ChatDetailFragment</text><rect fill="#FFFFFF" height="31.0146" rx="2.5" ry="2.5" style="stroke:#000000;stroke-width:1.0;" width="154.7793" x="140.606" y="1054.7314"/><text fill="#000000" font-family="Verdana" font-size="14" lengthAdjust="spacing" textLength="140.7793" x="147.606" y="1075.8066">ChatDetailFragment</text><rect fill="#FFFFFF" height="31.0146" rx="2.5" ry="2.5" style="stroke:#000000;stroke-width:1.0;" width="161.7041" x="374.251" y="98.7373"/><text fill="#000000" font-family="Verdana" font-size="14" lengthAdjust="spacing" textLength="147.7041" x="381.251" y="119.8125">ChatDetailViewModel</text><rect fill="#FFFFFF" height="31.0146" rx="2.5" ry="2.5" style="stroke:#000000;stroke-width:1.0;" width="161.7041" x="374.251" y="1054.7314"/><text fill="#000000" font-family="Verdana" font-size="14" lengthAdjust="spacing" textLength="147.7041" x="381.251" y="1075.8066">ChatDetailViewModel</text><rect fill="#FFFFFF" height="31.0146" rx="2.5" ry="2.5" style="stroke:#000000;stroke-width:1.0;" width="207.8672" x="642.4355" y="98.7373"/><text fill="#000000" font-family="Verdana" font-size="14" lengthAdjust="spacing" textLength="193.8672" x="649.4355" y="119.8125">FirebaseMessageRepository</text><rect fill="#FFFFFF" height="31.0146" rx="2.5" ry="2.5" style="stroke:#000000;stroke-width:1.0;" width="207.8672" x="642.4355" y="1054.7314"/><text fill="#000000" font-family="Verdana" font-size="14" lengthAdjust="spacing" textLength="193.8672" x="649.4355" y="1075.8066">FirebaseMessageRepository</text><rect fill="#FFFFFF" height="31.0146" rx="2.5" ry="2.5" style="stroke:#000000;stroke-width:1.0;" width="138.8516" x="1073.2632" y="98.7373"/><text fill="#000000" font-family="Verdana" font-size="14" lengthAdjust="spacing" textLength="124.8516" x="1080.2632" y="119.8125">FirebaseDatabase</text><rect fill="#FFFFFF" height="31.0146" rx="2.5" ry="2.5" style="stroke:#000000;stroke-width:1.0;" width="138.8516" x="1073.2632" y="1054.7314"/><text fill="#000000" font-family="Verdana" font-size="14" lengthAdjust="spacing" textLength="124.8516" x="1080.2632" y="1075.8066">FirebaseDatabase</text><rect fill="#FFFFFF" height="31.0146" rx="2.5" ry="2.5" style="stroke:#000000;stroke-width:1.0;" width="43.6201" x="1242.1147" y="98.7373"/><text fill="#000000" font-family="Verdana" font-size="14" lengthAdjust="spacing" textLength="29.6201" x="1249.1147" y="119.8125">FCM</text><rect fill="#FFFFFF" height="31.0146" rx="2.5" ry="2.5" style="stroke:#000000;stroke-width:1.0;" width="43.6201" x="1242.1147" y="1054.7314"/><text fill="#000000" font-family="Verdana" font-size="14" lengthAdjust="spacing" textLength="29.6201" x="1249.1147" y="1075.8066">FCM</text><text fill="#000000" font-family="Verdana" font-size="14" lengthAdjust="spacing" textLength="46.375" x="1374.7046" y="127.8125">User B</text><ellipse cx="1400.8921" cy="61.7373" fill="#FFFFFF" rx="8" ry="8" style="stroke:#000000;stroke-width:1.0;"/><path d="M1400.8921,69.7373 L1400.8921,96.7373 M1387.8921,77.7373 L1413.8921,77.7373 M1400.8921,96.7373 L1387.8921,111.7373 M1400.8921,96.7373 L1413.8921,111.7373 " fill="none" style="stroke:#000000;stroke-width:1.0;"/><text fill="#000000" font-family="Verdana" font-size="14" lengthAdjust="spacing" textLength="46.375" x="1374.7046" y="1068.8066">User B</text><ellipse cx="1400.8921" cy="1080.7461" fill="#FFFFFF" rx="8" ry="8" style="stroke:#000000;stroke-width:1.0;"/><path d="M1400.8921,1088.7461 L1400.8921,1115.7461 M1387.8921,1096.7461 L1413.8921,1096.7461 M1400.8921,1115.7461 L1387.8921,1130.7461 M1400.8921,1115.7461 L1413.8921,1130.7461 " fill="none" style="stroke:#000000;stroke-width:1.0;"/><rect fill="#FFFFFF" height="184.7959" style="stroke:#000000;stroke-width:1.0;" width="10" x="450.103" y="236.1499"/><rect fill="#FFFFFF" height="238.3945" style="stroke:#000000;stroke-width:1.0;" width="10" x="450.103" y="531.3438"/><rect fill="#FFFFFF" height="89.3979" style="stroke:#000000;stroke-width:1.0;" width="10" x="741.3691" y="265.9492"/><rect fill="#FFFFFF" height="208.5952" style="stroke:#000000;stroke-width:1.0;" width="10" x="741.3691" y="561.1431"/><rect fill="#FFFFFF" height="59.5986" style="stroke:#000000;stroke-width:1.0;" width="10" x="741.3691" y="843.3369"/><rect fill="#FFFFFF" height="750.9829" style="stroke:#000000;stroke-width:1.0;" width="10" x="1137.689" y="295.7485"/><rect fill="#FFFFFF" height="29.7993" style="stroke:#000000;stroke-width:1.0;" width="10" x="1142.689" y="590.9424"/><rect fill="#FFFFFF" height="29.7993" style="stroke:#000000;stroke-width:1.0;" width="10" x="1258.9248" y="710.1396"/><rect fill="#FFFFFF" height="3" style="stroke:#FFFFFF;stroke-width:1.0;" width="1427.0796" x="5" y="161.6516"/><line style="stroke:#000000;stroke-width:0.5;" x1="5" x2="1432.0796" y1="161.6516" y2="161.6516"/><line style="stroke:#000000;stroke-width:0.5;" x1="5" x2="1432.0796" y1="164.6516" y2="164.6516"/><rect fill="#FFFFFF" height="23.7993" style="stroke:#000000;stroke-width:1.0;" width="153.9531" x="641.5632" y="150.752"/><text fill="#000000" font-family="Verdana" font-size="13" font-weight="bold" lengthAdjust="spacing" textLength="135.5098" x="647.5632" y="167.8218">Load Conversation</text><polygon fill="#000000" points="205.9956,202.3506,215.9956,206.3506,205.9956,210.3506,209.9956,206.3506" style="stroke:#000000;stroke-width:1.0;"/><line style="stroke:#000000;stroke-width:1.0;" x1="36.1738" x2="211.9956" y1="206.3506" y2="206.3506"/><text fill="#000000" font-family="Verdana" font-size="13" lengthAdjust="spacing" textLength="146.561" x="43.1738" y="201.6211">Open chat with User B</text><polygon fill="#000000" points="438.103,232.1499,448.103,236.1499,438.103,240.1499,442.103,236.1499" style="stroke:#000000;stroke-width:1.0;"/><line style="stroke:#000000;stroke-width:1.0;" x1="217.9956" x2="444.103" y1="236.1499" y2="236.1499"/><text fill="#000000" font-family="Verdana" font-size="13" lengthAdjust="spacing" textLength="198.6753" x="224.9956" y="231.4204">loadMessages(conversationId)</text><polygon fill="#000000" points="729.3691,261.9492,739.3691,265.9492,729.3691,269.9492,733.3691,265.9492" style="stroke:#000000;stroke-width:1.0;"/><line style="stroke:#000000;stroke-width:1.0;" x1="460.103" x2="735.3691" y1="265.9492" y2="265.9492"/><text fill="#000000" font-family="Verdana" font-size="13" lengthAdjust="spacing" textLength="221.8442" x="467.103" y="261.2197">getMessagesFlow(conversationId)</text><polygon fill="#000000" points="1125.689,291.7485,1135.689,295.7485,1125.689,299.7485,1129.689,295.7485" style="stroke:#000000;stroke-width:1.0;"/><line style="stroke:#000000;stroke-width:1.0;" x1="751.3691" x2="1131.689" y1="295.7485" y2="295.7485"/><text fill="#000000" font-family="Verdana" font-size="13" lengthAdjust="spacing" textLength="367.3198" x="758.3691" y="291.019">addValueEventListener("conversations/{id}/messages")</text><polygon fill="#000000" points="762.3691,321.5479,752.3691,325.5479,762.3691,329.5479,758.3691,325.5479" style="stroke:#000000;stroke-width:1.0;"/><line style="stroke:#000000;stroke-width:1.0;stroke-dasharray:2.0,2.0;" x1="756.3691" x2="1136.689" y1="325.5479" y2="325.5479"/><text fill="#000000" font-family="Verdana" font-size="13" lengthAdjust="spacing" textLength="169.749" x="768.3691" y="320.8184">Initial messages snapshot</text><polygon fill="#000000" points="471.103,351.3472,461.103,355.3472,471.103,359.3472,467.103,355.3472" style="stroke:#000000;stroke-width:1.0;"/><line style="stroke:#000000;stroke-width:1.0;stroke-dasharray:2.0,2.0;" x1="465.103" x2="745.3691" y1="355.3472" y2="355.3472"/><text fill="#000000" font-family="Verdana" font-size="13" lengthAdjust="spacing" textLength="180.9526" x="477.103" y="350.6177">Flow&lt;List&lt;ChatMessage&gt;&gt;</text><polygon fill="#000000" points="228.9956,381.1465,218.9956,385.1465,228.9956,389.1465,224.9956,385.1465" style="stroke:#000000;stroke-width:1.0;"/><line style="stroke:#000000;stroke-width:1.0;stroke-dasharray:2.0,2.0;" x1="222.9956" x2="449.103" y1="385.1465" y2="385.1465"/><text fill="#000000" font-family="Verdana" font-size="13" lengthAdjust="spacing" textLength="176.8838" x="234.9956" y="380.417">Update messages LiveData</text><line style="stroke:#000000;stroke-width:1.0;" x1="217.9956" x2="259.9956" y1="414.9458" y2="414.9458"/><line style="stroke:#000000;stroke-width:1.0;" x1="259.9956" x2="259.9956" y1="414.9458" y2="427.9458"/><line style="stroke:#000000;stroke-width:1.0;" x1="218.9956" x2="259.9956" y1="427.9458" y2="427.9458"/><polygon fill="#000000" points="228.9956,423.9458,218.9956,427.9458,228.9956,431.9458,224.9956,427.9458" style="stroke:#000000;stroke-width:1.0;"/><text fill="#000000" font-family="Verdana" font-size="13" lengthAdjust="spacing" textLength="223.1074" x="224.9956" y="410.2163">Display messages in RecyclerView</text><rect fill="#FFFFFF" height="3" style="stroke:#FFFFFF;stroke-width:1.0;" width="1427.0796" x="5" y="456.8455"/><line style="stroke:#000000;stroke-width:0.5;" x1="5" x2="1432.0796" y1="456.8455" y2="456.8455"/><line style="stroke:#000000;stroke-width:0.5;" x1="5" x2="1432.0796" y1="459.8455" y2="459.8455"/><rect fill="#FFFFFF" height="23.7993" style="stroke:#000000;stroke-width:1.0;" width="121.8911" x="657.5942" y="445.9458"/><text fill="#000000" font-family="Verdana" font-size="13" font-weight="bold" lengthAdjust="spacing" textLength="103.4478" x="663.5942" y="463.0156">Send Message</text><polygon fill="#000000" points="205.9956,497.5444,215.9956,501.5444,205.9956,505.5444,209.9956,501.5444" style="stroke:#000000;stroke-width:1.0;"/><line style="stroke:#000000;stroke-width:1.0;" x1="36.1738" x2="211.9956" y1="501.5444" y2="501.5444"/><text fill="#000000" font-family="Verdana" font-size="13" lengthAdjust="spacing" textLength="157.8218" x="43.1738" y="496.8149">Type and send message</text><polygon fill="#000000" points="438.103,527.3438,448.103,531.3438,438.103,535.3438,442.103,531.3438" style="stroke:#000000;stroke-width:1.0;"/><line style="stroke:#000000;stroke-width:1.0;" x1="217.9956" x2="444.103" y1="531.3438" y2="531.3438"/><text fill="#000000" font-family="Verdana" font-size="13" lengthAdjust="spacing" textLength="124.23" x="224.9956" y="526.6143">sendMessage(text)</text><polygon fill="#000000" points="729.3691,557.1431,739.3691,561.1431,729.3691,565.1431,733.3691,561.1431" style="stroke:#000000;stroke-width:1.0;"/><line style="stroke:#000000;stroke-width:1.0;" x1="460.103" x2="735.3691" y1="561.1431" y2="561.1431"/><text fill="#000000" font-family="Verdana" font-size="13" lengthAdjust="spacing" textLength="262.2661" x="467.103" y="556.4136">sendMessage(conversationId, message)</text><polygon fill="#000000" points="1130.689,586.9424,1140.689,590.9424,1130.689,594.9424,1134.689,590.9424" style="stroke:#000000;stroke-width:1.0;"/><line style="stroke:#000000;stroke-width:1.0;" x1="751.3691" x2="1136.689" y1="590.9424" y2="590.9424"/><text fill="#000000" font-family="Verdana" font-size="13" lengthAdjust="spacing" textLength="136.4683" x="758.3691" y="586.2129">push() new message</text><polygon fill="#000000" points="762.3691,616.7417,752.3691,620.7417,762.3691,624.7417,758.3691,620.7417" style="stroke:#000000;stroke-width:1.0;"/><line style="stroke:#000000;stroke-width:1.0;stroke-dasharray:2.0,2.0;" x1="756.3691" x2="1136.689" y1="620.7417" y2="620.7417"/><text fill="#000000" font-family="Verdana" font-size="13" lengthAdjust="spacing" textLength="69.4688" x="768.3691" y="616.0122">MessageId</text><polygon fill="#000000" points="1125.689,646.541,1135.689,650.541,1125.689,654.541,1129.689,650.541" style="stroke:#000000;stroke-width:1.0;"/><line style="stroke:#000000;stroke-width:1.0;" x1="751.3691" x2="1131.689" y1="650.541" y2="650.541"/><text fill="#000000" font-family="Verdana" font-size="13" lengthAdjust="spacing" textLength="216.9502" x="758.3691" y="645.8115">update lastMessage &amp; timestamp</text><polygon fill="#000000" points="1125.689,676.3403,1135.689,680.3403,1125.689,684.3403,1129.689,680.3403" style="stroke:#000000;stroke-width:1.0;"/><line style="stroke:#000000;stroke-width:1.0;" x1="751.3691" x2="1131.689" y1="680.3403" y2="680.3403"/><text fill="#000000" font-family="Verdana" font-size="13" lengthAdjust="spacing" textLength="224.5737" x="758.3691" y="675.6108">increment unreadCount for User B</text><polygon fill="#000000" points="1246.9248,706.1396,1256.9248,710.1396,1246.9248,714.1396,1250.9248,710.1396" style="stroke:#000000;stroke-width:1.0;"/><line style="stroke:#000000;stroke-width:1.0;" x1="751.3691" x2="1252.9248" y1="710.1396" y2="710.1396"/><text fill="#000000" font-family="Verdana" font-size="13" lengthAdjust="spacing" textLength="244.7783" x="758.3691" y="705.4102">sendNotification(userId=B, message)</text><polygon fill="#000000" points="1388.8921,735.939,1398.8921,739.939,1388.8921,743.939,1392.8921,739.939" style="stroke:#000000;stroke-width:1.0;"/><line style="stroke:#000000;stroke-width:1.0;stroke-dasharray:2.0,2.0;" x1="1263.9248" x2="1394.8921" y1="739.939" y2="739.939"/><text fill="#000000" font-family="Verdana" font-size="13" lengthAdjust="spacing" textLength="107.9673" x="1270.9248" y="735.2095">Push notification</text><polygon fill="#000000" points="466.103,765.7383,456.103,769.7383,466.103,773.7383,462.103,769.7383" style="stroke:#000000;stroke-width:1.0;"/><line style="stroke:#000000;stroke-width:1.0;stroke-dasharray:2.0,2.0;" x1="460.103" x2="745.3691" y1="769.7383" y2="769.7383"/><text fill="#000000" font-family="Verdana" font-size="13" lengthAdjust="spacing" textLength="97.1509" x="472.103" y="765.0088">Result.Success</text><rect fill="#FFFFFF" height="3" style="stroke:#FFFFFF;stroke-width:1.0;" width="1427.0796" x="5" y="798.6379"/><line style="stroke:#000000;stroke-width:0.5;" x1="5" x2="1432.0796" y1="798.6379" y2="798.6379"/><line style="stroke:#000000;stroke-width:0.5;" x1="5" x2="1432.0796" y1="801.6379" y2="801.6379"/><rect fill="#FFFFFF" height="23.7993" style="stroke:#000000;stroke-width:1.0;" width="212.0659" x="612.5068" y="787.7383"/><text fill="#000000" font-family="Verdana" font-size="13" font-weight="bold" lengthAdjust="spacing" textLength="193.6226" x="618.5068" y="804.8081">Real-time Update (User B)</text><polygon fill="#000000" points="762.3691,839.3369,752.3691,843.3369,762.3691,847.3369,758.3691,843.3369" style="stroke:#000000;stroke-width:1.0;"/><line style="stroke:#000000;stroke-width:1.0;" x1="756.3691" x2="1136.689" y1="843.3369" y2="843.3369"/><text fill="#000000" font-family="Verdana" font-size="13" lengthAdjust="spacing" textLength="201.1953" x="768.3691" y="838.6074">onDataChange (new message)</text><polygon fill="#000000" points="466.103,869.1362,456.103,873.1362,466.103,877.1362,462.103,873.1362" style="stroke:#000000;stroke-width:1.0;"/><line style="stroke:#000000;stroke-width:1.0;stroke-dasharray:2.0,2.0;" x1="460.103" x2="740.3691" y1="873.1362" y2="873.1362"/><text fill="#000000" font-family="Verdana" font-size="13" lengthAdjust="spacing" textLength="180.667" x="472.103" y="868.4067">Emit new message via Flow</text><polygon fill="#000000" points="228.9956,898.9355,218.9956,902.9355,228.9956,906.9355,224.9956,902.9355" style="stroke:#000000;stroke-width:1.0;"/><line style="stroke:#000000;stroke-width:1.0;stroke-dasharray:2.0,2.0;" x1="222.9956" x2="454.103" y1="902.9355" y2="902.9355"/><text fill="#000000" font-family="Verdana" font-size="13" lengthAdjust="spacing" textLength="65.9458" x="234.9956" y="898.2061">Update UI</text><path d="M1041,915.9355 L1041,972.9355 L1244,972.9355 L1244,925.9355 L1234,915.9355 L1041,915.9355 " fill="#FFFFFF" style="stroke:#000000;stroke-width:1.0;"/><path d="M1234,915.9355 L1234,925.9355 L1244,925.9355 L1234,915.9355 " fill="#FFFFFF" style="stroke:#000000;stroke-width:1.0;"/><text fill="#000000" font-family="Verdana" font-size="13" lengthAdjust="spacing" textLength="182.311" x="1047" y="934.0054">Firebase Realtime Database</text><text fill="#000000" font-family="Verdana" font-size="13" lengthAdjust="spacing" textLength="153.6704" x="1047" y="949.8047">provides real-time sync</text><text fill="#000000" font-family="Verdana" font-size="13" lengthAdjust="spacing" textLength="148.8398" x="1047" y="965.604">via ValueEventListener</text><path d="M1165,983.3335 L1165,1040.3335 L1361,1040.3335 L1361,993.3335 L1351,983.3335 L1165,983.3335 " fill="#FFFFFF" style="stroke:#000000;stroke-width:1.0;"/><path d="M1351,983.3335 L1351,993.3335 L1361,993.3335 L1351,983.3335 " fill="#FFFFFF" style="stroke:#000000;stroke-width:1.0;"/><text fill="#000000" font-family="Verdana" font-size="13" lengthAdjust="spacing" textLength="168.8032" x="1171" y="1001.4033">Firebase Cloud Messaging</text><text fill="#000000" font-family="Verdana" font-size="13" lengthAdjust="spacing" textLength="170.3076" x="1171" y="1017.2026">delivers push notifications</text><text fill="#000000" font-family="Verdana" font-size="13" lengthAdjust="spacing" textLength="175.7222" x="1171" y="1033.002">when app is in background</text><!--SRC=[XLHDRzf04BtxLqmvL8uKcZiAaG8E4b9egwJXFl5EO5IpThrhAAhwtpkp_i0EH3rW3FDsPjwyD_l9Rsb7K6J8Deey-unWTOIlkVTiDrlSmHYU2BEnPu6jo3dSI02UwLT5DYL863Sbxg88Kv-NC7fnLCBz2D21ljv71PQUKoxGUXZDj-WJyiZPeiJDZgmFo7co-0YtPZgiSaDP0rolXiW5b_IAZkhMw8cAtB5qSWnu_NaPdw17_GwmPFOED5-5_-Lxm6lMyPf5qNGAZpaQcETsJwL3pxc5wJGAj65yfwmcyAqW2wdGWGFxBTHf8WdLYFLg0fbaQTftSThBjZHNMfxtwAcc7kbJJogn2Mp8jmSNMNxu-72OWpxqR3AR01gpngoYXxreyCZEawKo7lKJk9i_RFxUx9e2eruwcLSoWt7NnzAoPyoWnOApMBXjxfkQ7LNjybRBtQh2JUztTv6XOQiDptQ8BuNHK9V-aVT1mDCS1PIm4niVJoYsaYmzfXcLwg9-aNgOek0pMTFOcix5-t4i250GJc5Dug5u6cdEnvv- -_yereSFrRfkyx-NRQ1RKRbjV0MM3bqx7whIr5cQFdC13H9MzMWpTAqSy1bqsPt7NJ60iarBqfs5ofQ4PfvNylucsz6ukaFBtjHKvHxXDqu3nRWIrD9CPvUOwgR99tGVzci2tuKgs5w2FWt5lpVN4xagyr-UgpIL_EUUkgJ_wMvhF1RNNAxK33hDTfYvLSE9QwrCAExD__AMTKqzxDZtvO8zOrY3onP_MPxtBJCWoCKgAXv0UuE5taFhxLqcmQBCzsp4_6L7p1rjAX6jUxxoaHfR2_JBw71xTUPPNfdJtIyXkOvPhHliED38IVImbIiFYm8uxE0hfZytfNZ5d8hz0m00]--></g></svg>